<mxfile host="app.diagrams.net" agent="Mozilla/5.0 (Windows NT 10.0; Win64; x64) AppleWebKit/537.36 (KHTML, like Gecko) Chrome/134.0.0.0 Safari/537.36" version="26.1.1">
  <diagram id="R2lEEEUBdFMjLlhIrx00" name="Page-1">
    <mxGraphModel dx="1772" dy="747" grid="1" gridSize="10" guides="1" tooltips="1" connect="1" arrows="1" fold="1" page="1" pageScale="1" pageWidth="850" pageHeight="1100" math="0" shadow="0" extFonts="Permanent Marker^https://fonts.googleapis.com/css?family=Permanent+Marker">
      <root>
        <mxCell id="0" />
        <mxCell id="1" parent="0" />
        <mxCell id="GWg-XANY6kdctSkGbIym-1" value="Book" style="rounded=0;whiteSpace=wrap;html=1;fillColor=#dae8fc;strokeColor=#6c8ebf;" vertex="1" parent="1">
          <mxGeometry x="700" y="270" width="120" height="60" as="geometry" />
        </mxCell>
        <mxCell id="GWg-XANY6kdctSkGbIym-2" value="Customer" style="rounded=0;whiteSpace=wrap;html=1;fillColor=#dae8fc;strokeColor=#6c8ebf;" vertex="1" parent="1">
          <mxGeometry x="80" y="270" width="120" height="60" as="geometry" />
        </mxCell>
        <mxCell id="GWg-XANY6kdctSkGbIym-3" value="Author" style="rounded=0;whiteSpace=wrap;html=1;fillColor=#dae8fc;strokeColor=#6c8ebf;" vertex="1" parent="1">
          <mxGeometry x="930" y="270" width="120" height="60" as="geometry" />
        </mxCell>
        <mxCell id="GWg-XANY6kdctSkGbIym-4" value="Order" style="rounded=0;whiteSpace=wrap;html=1;fillColor=#dae8fc;strokeColor=#6c8ebf;" vertex="1" parent="1">
          <mxGeometry x="290" y="270" width="120" height="60" as="geometry" />
        </mxCell>
        <mxCell id="GWg-XANY6kdctSkGbIym-5" value="OrderDetails" style="rounded=0;whiteSpace=wrap;html=1;fillColor=#dae8fc;strokeColor=#6c8ebf;" vertex="1" parent="1">
          <mxGeometry x="510" y="270" width="120" height="60" as="geometry" />
        </mxCell>
        <mxCell id="GWg-XANY6kdctSkGbIym-6" value="" style="endArrow=ERmany;html=1;rounded=0;shadow=1;endFill=0;entryX=0;entryY=0.5;entryDx=0;entryDy=0;startArrow=ERmany;startFill=0;" edge="1" parent="1" target="GWg-XANY6kdctSkGbIym-3">
          <mxGeometry width="50" height="50" relative="1" as="geometry">
            <mxPoint x="820" y="300" as="sourcePoint" />
            <mxPoint x="870" y="250" as="targetPoint" />
            <Array as="points" />
          </mxGeometry>
        </mxCell>
        <mxCell id="GWg-XANY6kdctSkGbIym-7" value="" style="endArrow=ERoneToMany;html=1;rounded=0;shadow=1;endFill=0;entryX=0;entryY=0.5;entryDx=0;entryDy=0;" edge="1" parent="1" target="GWg-XANY6kdctSkGbIym-5">
          <mxGeometry width="50" height="50" relative="1" as="geometry">
            <mxPoint x="410" y="300" as="sourcePoint" />
            <mxPoint x="460" y="250" as="targetPoint" />
            <Array as="points" />
          </mxGeometry>
        </mxCell>
        <mxCell id="GWg-XANY6kdctSkGbIym-9" value="" style="endArrow=ERoneToMany;html=1;rounded=0;shadow=1;endFill=0;entryX=0;entryY=0.5;entryDx=0;entryDy=0;" edge="1" parent="1" target="GWg-XANY6kdctSkGbIym-1">
          <mxGeometry width="50" height="50" relative="1" as="geometry">
            <mxPoint x="630" y="300" as="sourcePoint" />
            <mxPoint x="680" y="250" as="targetPoint" />
            <Array as="points" />
          </mxGeometry>
        </mxCell>
        <mxCell id="GWg-XANY6kdctSkGbIym-10" value="" style="endArrow=ERoneToMany;html=1;rounded=0;shadow=1;endFill=0;entryX=0;entryY=0.5;entryDx=0;entryDy=0;" edge="1" parent="1" target="GWg-XANY6kdctSkGbIym-4">
          <mxGeometry width="50" height="50" relative="1" as="geometry">
            <mxPoint x="200" y="300" as="sourcePoint" />
            <mxPoint x="250" y="250" as="targetPoint" />
            <Array as="points" />
          </mxGeometry>
        </mxCell>
        <mxCell id="GWg-XANY6kdctSkGbIym-73" value="Customer" style="swimlane;fontStyle=0;childLayout=stackLayout;horizontal=1;startSize=26;horizontalStack=0;resizeParent=1;resizeParentMax=0;resizeLast=0;collapsible=1;marginBottom=0;align=center;fontSize=14;fillColor=#dae8fc;strokeColor=#6c8ebf;" vertex="1" parent="1">
          <mxGeometry x="80" y="470" width="160" height="176" as="geometry" />
        </mxCell>
        <mxCell id="GWg-XANY6kdctSkGbIym-74" value="Customer_ID (PK)" style="text;strokeColor=none;fillColor=none;spacingLeft=4;spacingRight=4;overflow=hidden;rotatable=0;points=[[0,0.5],[1,0.5]];portConstraint=eastwest;fontSize=12;whiteSpace=wrap;html=1;" vertex="1" parent="GWg-XANY6kdctSkGbIym-73">
          <mxGeometry y="26" width="160" height="30" as="geometry" />
        </mxCell>
        <mxCell id="GWg-XANY6kdctSkGbIym-75" value="Name" style="text;strokeColor=none;fillColor=none;spacingLeft=4;spacingRight=4;overflow=hidden;rotatable=0;points=[[0,0.5],[1,0.5]];portConstraint=eastwest;fontSize=12;whiteSpace=wrap;html=1;" vertex="1" parent="GWg-XANY6kdctSkGbIym-73">
          <mxGeometry y="56" width="160" height="30" as="geometry" />
        </mxCell>
        <mxCell id="GWg-XANY6kdctSkGbIym-93" value="Email" style="text;strokeColor=none;fillColor=none;spacingLeft=4;spacingRight=4;overflow=hidden;rotatable=0;points=[[0,0.5],[1,0.5]];portConstraint=eastwest;fontSize=12;whiteSpace=wrap;html=1;" vertex="1" parent="GWg-XANY6kdctSkGbIym-73">
          <mxGeometry y="86" width="160" height="30" as="geometry" />
        </mxCell>
        <mxCell id="GWg-XANY6kdctSkGbIym-94" value="Phone" style="text;strokeColor=none;fillColor=none;spacingLeft=4;spacingRight=4;overflow=hidden;rotatable=0;points=[[0,0.5],[1,0.5]];portConstraint=eastwest;fontSize=12;whiteSpace=wrap;html=1;" vertex="1" parent="GWg-XANY6kdctSkGbIym-73">
          <mxGeometry y="116" width="160" height="30" as="geometry" />
        </mxCell>
        <mxCell id="GWg-XANY6kdctSkGbIym-76" value="Address" style="text;strokeColor=none;fillColor=none;spacingLeft=4;spacingRight=4;overflow=hidden;rotatable=0;points=[[0,0.5],[1,0.5]];portConstraint=eastwest;fontSize=12;whiteSpace=wrap;html=1;" vertex="1" parent="GWg-XANY6kdctSkGbIym-73">
          <mxGeometry y="146" width="160" height="30" as="geometry" />
        </mxCell>
        <mxCell id="GWg-XANY6kdctSkGbIym-77" value="Order" style="swimlane;fontStyle=0;childLayout=stackLayout;horizontal=1;startSize=26;horizontalStack=0;resizeParent=1;resizeParentMax=0;resizeLast=0;collapsible=1;marginBottom=0;align=center;fontSize=14;fillColor=#dae8fc;strokeColor=#6c8ebf;" vertex="1" parent="1">
          <mxGeometry x="310" y="470" width="160" height="146" as="geometry" />
        </mxCell>
        <mxCell id="GWg-XANY6kdctSkGbIym-78" value="Order_ID (PK)" style="text;strokeColor=none;fillColor=none;spacingLeft=4;spacingRight=4;overflow=hidden;rotatable=0;points=[[0,0.5],[1,0.5]];portConstraint=eastwest;fontSize=12;whiteSpace=wrap;html=1;" vertex="1" parent="GWg-XANY6kdctSkGbIym-77">
          <mxGeometry y="26" width="160" height="30" as="geometry" />
        </mxCell>
        <mxCell id="GWg-XANY6kdctSkGbIym-79" value="Customer_ID (FK)" style="text;strokeColor=none;fillColor=none;spacingLeft=4;spacingRight=4;overflow=hidden;rotatable=0;points=[[0,0.5],[1,0.5]];portConstraint=eastwest;fontSize=12;whiteSpace=wrap;html=1;" vertex="1" parent="GWg-XANY6kdctSkGbIym-77">
          <mxGeometry y="56" width="160" height="30" as="geometry" />
        </mxCell>
        <mxCell id="GWg-XANY6kdctSkGbIym-96" value="Order_Date" style="text;strokeColor=none;fillColor=none;spacingLeft=4;spacingRight=4;overflow=hidden;rotatable=0;points=[[0,0.5],[1,0.5]];portConstraint=eastwest;fontSize=12;whiteSpace=wrap;html=1;" vertex="1" parent="GWg-XANY6kdctSkGbIym-77">
          <mxGeometry y="86" width="160" height="30" as="geometry" />
        </mxCell>
        <mxCell id="GWg-XANY6kdctSkGbIym-80" value="Total_Amount" style="text;strokeColor=none;fillColor=none;spacingLeft=4;spacingRight=4;overflow=hidden;rotatable=0;points=[[0,0.5],[1,0.5]];portConstraint=eastwest;fontSize=12;whiteSpace=wrap;html=1;" vertex="1" parent="GWg-XANY6kdctSkGbIym-77">
          <mxGeometry y="116" width="160" height="30" as="geometry" />
        </mxCell>
        <mxCell id="GWg-XANY6kdctSkGbIym-81" value="OrderDetails" style="swimlane;fontStyle=0;childLayout=stackLayout;horizontal=1;startSize=26;horizontalStack=0;resizeParent=1;resizeParentMax=0;resizeLast=0;collapsible=1;marginBottom=0;align=center;fontSize=14;fillColor=#dae8fc;strokeColor=#6c8ebf;" vertex="1" parent="1">
          <mxGeometry x="540" y="470" width="160" height="146" as="geometry" />
        </mxCell>
        <mxCell id="GWg-XANY6kdctSkGbIym-82" value="Order_ID (PK, FK)" style="text;strokeColor=none;fillColor=none;spacingLeft=4;spacingRight=4;overflow=hidden;rotatable=0;points=[[0,0.5],[1,0.5]];portConstraint=eastwest;fontSize=12;whiteSpace=wrap;html=1;" vertex="1" parent="GWg-XANY6kdctSkGbIym-81">
          <mxGeometry y="26" width="160" height="30" as="geometry" />
        </mxCell>
        <mxCell id="GWg-XANY6kdctSkGbIym-83" value="Book_ID (PK, FK)" style="text;strokeColor=none;fillColor=none;spacingLeft=4;spacingRight=4;overflow=hidden;rotatable=0;points=[[0,0.5],[1,0.5]];portConstraint=eastwest;fontSize=12;whiteSpace=wrap;html=1;" vertex="1" parent="GWg-XANY6kdctSkGbIym-81">
          <mxGeometry y="56" width="160" height="30" as="geometry" />
        </mxCell>
        <mxCell id="GWg-XANY6kdctSkGbIym-98" value="Quantity" style="text;strokeColor=none;fillColor=none;spacingLeft=4;spacingRight=4;overflow=hidden;rotatable=0;points=[[0,0.5],[1,0.5]];portConstraint=eastwest;fontSize=12;whiteSpace=wrap;html=1;" vertex="1" parent="GWg-XANY6kdctSkGbIym-81">
          <mxGeometry y="86" width="160" height="30" as="geometry" />
        </mxCell>
        <mxCell id="GWg-XANY6kdctSkGbIym-84" value="Price_Per_Unit" style="text;strokeColor=none;fillColor=none;spacingLeft=4;spacingRight=4;overflow=hidden;rotatable=0;points=[[0,0.5],[1,0.5]];portConstraint=eastwest;fontSize=12;whiteSpace=wrap;html=1;" vertex="1" parent="GWg-XANY6kdctSkGbIym-81">
          <mxGeometry y="116" width="160" height="30" as="geometry" />
        </mxCell>
        <mxCell id="GWg-XANY6kdctSkGbIym-85" value="Book" style="swimlane;fontStyle=0;childLayout=stackLayout;horizontal=1;startSize=26;horizontalStack=0;resizeParent=1;resizeParentMax=0;resizeLast=0;collapsible=1;marginBottom=0;align=center;fontSize=14;fillColor=#dae8fc;strokeColor=#6c8ebf;" vertex="1" parent="1">
          <mxGeometry x="770" y="470" width="160" height="176" as="geometry" />
        </mxCell>
        <mxCell id="GWg-XANY6kdctSkGbIym-86" value="Book_ID (PK)" style="text;strokeColor=none;fillColor=none;spacingLeft=4;spacingRight=4;overflow=hidden;rotatable=0;points=[[0,0.5],[1,0.5]];portConstraint=eastwest;fontSize=12;whiteSpace=wrap;html=1;" vertex="1" parent="GWg-XANY6kdctSkGbIym-85">
          <mxGeometry y="26" width="160" height="30" as="geometry" />
        </mxCell>
        <mxCell id="GWg-XANY6kdctSkGbIym-87" value="Title" style="text;strokeColor=none;fillColor=none;spacingLeft=4;spacingRight=4;overflow=hidden;rotatable=0;points=[[0,0.5],[1,0.5]];portConstraint=eastwest;fontSize=12;whiteSpace=wrap;html=1;" vertex="1" parent="GWg-XANY6kdctSkGbIym-85">
          <mxGeometry y="56" width="160" height="30" as="geometry" />
        </mxCell>
        <mxCell id="GWg-XANY6kdctSkGbIym-101" value="ISBN" style="text;strokeColor=none;fillColor=none;spacingLeft=4;spacingRight=4;overflow=hidden;rotatable=0;points=[[0,0.5],[1,0.5]];portConstraint=eastwest;fontSize=12;whiteSpace=wrap;html=1;" vertex="1" parent="GWg-XANY6kdctSkGbIym-85">
          <mxGeometry y="86" width="160" height="30" as="geometry" />
        </mxCell>
        <mxCell id="GWg-XANY6kdctSkGbIym-102" value="Genre" style="text;strokeColor=none;fillColor=none;spacingLeft=4;spacingRight=4;overflow=hidden;rotatable=0;points=[[0,0.5],[1,0.5]];portConstraint=eastwest;fontSize=12;whiteSpace=wrap;html=1;" vertex="1" parent="GWg-XANY6kdctSkGbIym-85">
          <mxGeometry y="116" width="160" height="30" as="geometry" />
        </mxCell>
        <mxCell id="GWg-XANY6kdctSkGbIym-88" value="Price" style="text;strokeColor=none;fillColor=none;spacingLeft=4;spacingRight=4;overflow=hidden;rotatable=0;points=[[0,0.5],[1,0.5]];portConstraint=eastwest;fontSize=12;whiteSpace=wrap;html=1;" vertex="1" parent="GWg-XANY6kdctSkGbIym-85">
          <mxGeometry y="146" width="160" height="30" as="geometry" />
        </mxCell>
        <mxCell id="GWg-XANY6kdctSkGbIym-89" value="Author" style="swimlane;fontStyle=0;childLayout=stackLayout;horizontal=1;startSize=26;horizontalStack=0;resizeParent=1;resizeParentMax=0;resizeLast=0;collapsible=1;marginBottom=0;align=center;fontSize=14;fillColor=#dae8fc;strokeColor=#6c8ebf;" vertex="1" parent="1">
          <mxGeometry x="1240" y="470" width="160" height="116" as="geometry" />
        </mxCell>
        <mxCell id="GWg-XANY6kdctSkGbIym-90" value="Author_ID" style="text;strokeColor=none;fillColor=none;spacingLeft=4;spacingRight=4;overflow=hidden;rotatable=0;points=[[0,0.5],[1,0.5]];portConstraint=eastwest;fontSize=12;whiteSpace=wrap;html=1;" vertex="1" parent="GWg-XANY6kdctSkGbIym-89">
          <mxGeometry y="26" width="160" height="30" as="geometry" />
        </mxCell>
        <mxCell id="GWg-XANY6kdctSkGbIym-91" value="Name" style="text;strokeColor=none;fillColor=none;spacingLeft=4;spacingRight=4;overflow=hidden;rotatable=0;points=[[0,0.5],[1,0.5]];portConstraint=eastwest;fontSize=12;whiteSpace=wrap;html=1;" vertex="1" parent="GWg-XANY6kdctSkGbIym-89">
          <mxGeometry y="56" width="160" height="30" as="geometry" />
        </mxCell>
        <mxCell id="GWg-XANY6kdctSkGbIym-92" value="Country" style="text;strokeColor=none;fillColor=none;spacingLeft=4;spacingRight=4;overflow=hidden;rotatable=0;points=[[0,0.5],[1,0.5]];portConstraint=eastwest;fontSize=12;whiteSpace=wrap;html=1;" vertex="1" parent="GWg-XANY6kdctSkGbIym-89">
          <mxGeometry y="86" width="160" height="30" as="geometry" />
        </mxCell>
        <mxCell id="GWg-XANY6kdctSkGbIym-107" value="Book_Author" style="swimlane;fontStyle=0;childLayout=stackLayout;horizontal=1;startSize=26;horizontalStack=0;resizeParent=1;resizeParentMax=0;resizeLast=0;collapsible=1;marginBottom=0;align=center;fontSize=14;fillColor=#dae8fc;strokeColor=#6c8ebf;" vertex="1" parent="1">
          <mxGeometry x="1010" y="470" width="160" height="86" as="geometry" />
        </mxCell>
        <mxCell id="GWg-XANY6kdctSkGbIym-108" value="Book_ID (PK, FK)" style="text;strokeColor=none;fillColor=none;spacingLeft=4;spacingRight=4;overflow=hidden;rotatable=0;points=[[0,0.5],[1,0.5]];portConstraint=eastwest;fontSize=12;whiteSpace=wrap;html=1;" vertex="1" parent="GWg-XANY6kdctSkGbIym-107">
          <mxGeometry y="26" width="160" height="30" as="geometry" />
        </mxCell>
        <mxCell id="GWg-XANY6kdctSkGbIym-109" value="Author_ID (PK, FK)" style="text;strokeColor=none;fillColor=none;spacingLeft=4;spacingRight=4;overflow=hidden;rotatable=0;points=[[0,0.5],[1,0.5]];portConstraint=eastwest;fontSize=12;whiteSpace=wrap;html=1;" vertex="1" parent="GWg-XANY6kdctSkGbIym-107">
          <mxGeometry y="56" width="160" height="30" as="geometry" />
        </mxCell>
        <mxCell id="GWg-XANY6kdctSkGbIym-113" value="" style="edgeStyle=entityRelationEdgeStyle;fontSize=12;html=1;endArrow=ERoneToMany;rounded=0;entryX=0;entryY=0.5;entryDx=0;entryDy=0;" edge="1" parent="1" target="GWg-XANY6kdctSkGbIym-79">
          <mxGeometry width="100" height="100" relative="1" as="geometry">
            <mxPoint x="240" y="510" as="sourcePoint" />
            <mxPoint x="340" y="410" as="targetPoint" />
            <Array as="points">
              <mxPoint x="270" y="450" />
              <mxPoint x="300" y="510" />
            </Array>
          </mxGeometry>
        </mxCell>
        <mxCell id="GWg-XANY6kdctSkGbIym-115" value="" style="endArrow=ERoneToMany;html=1;rounded=0;shadow=1;endFill=0;" edge="1" parent="1">
          <mxGeometry width="50" height="50" relative="1" as="geometry">
            <mxPoint x="470" y="510" as="sourcePoint" />
            <mxPoint x="540" y="510" as="targetPoint" />
            <Array as="points" />
          </mxGeometry>
        </mxCell>
        <mxCell id="GWg-XANY6kdctSkGbIym-116" value="" style="edgeStyle=entityRelationEdgeStyle;fontSize=12;html=1;endArrow=ERoneToMany;rounded=0;entryX=0;entryY=0.5;entryDx=0;entryDy=0;" edge="1" parent="1" target="GWg-XANY6kdctSkGbIym-176">
          <mxGeometry width="100" height="100" relative="1" as="geometry">
            <mxPoint x="1000" y="859" as="sourcePoint" />
            <mxPoint x="1070" y="830" as="targetPoint" />
          </mxGeometry>
        </mxCell>
        <mxCell id="GWg-XANY6kdctSkGbIym-118" value="" style="endArrow=ERoneToMany;html=1;rounded=0;shadow=1;endFill=0;entryX=0;entryY=0.5;entryDx=0;entryDy=0;" edge="1" parent="1" target="GWg-XANY6kdctSkGbIym-108">
          <mxGeometry width="50" height="50" relative="1" as="geometry">
            <mxPoint x="930" y="512.41" as="sourcePoint" />
            <mxPoint x="1000" y="512.41" as="targetPoint" />
            <Array as="points" />
          </mxGeometry>
        </mxCell>
        <mxCell id="GWg-XANY6kdctSkGbIym-119" value="" style="edgeStyle=entityRelationEdgeStyle;fontSize=12;html=1;endArrow=ERoneToMany;rounded=0;exitX=0;exitY=0.5;exitDx=0;exitDy=0;entryX=1;entryY=0.5;entryDx=0;entryDy=0;" edge="1" parent="1" source="GWg-XANY6kdctSkGbIym-90" target="GWg-XANY6kdctSkGbIym-109">
          <mxGeometry width="100" height="100" relative="1" as="geometry">
            <mxPoint x="1170" y="540" as="sourcePoint" />
            <mxPoint x="1160" y="610" as="targetPoint" />
          </mxGeometry>
        </mxCell>
        <mxCell id="GWg-XANY6kdctSkGbIym-133" value="Customer" style="shape=table;startSize=30;container=1;collapsible=1;childLayout=tableLayout;fixedRows=1;rowLines=0;fontStyle=1;align=center;resizeLast=1;html=1;fillColor=#dae8fc;strokeColor=#6c8ebf;" vertex="1" parent="1">
          <mxGeometry x="80" y="780" width="250" height="180" as="geometry" />
        </mxCell>
        <mxCell id="GWg-XANY6kdctSkGbIym-134" value="" style="shape=tableRow;horizontal=0;startSize=0;swimlaneHead=0;swimlaneBody=0;fillColor=none;collapsible=0;dropTarget=0;points=[[0,0.5],[1,0.5]];portConstraint=eastwest;top=0;left=0;right=0;bottom=1;" vertex="1" parent="GWg-XANY6kdctSkGbIym-133">
          <mxGeometry y="30" width="250" height="30" as="geometry" />
        </mxCell>
        <mxCell id="GWg-XANY6kdctSkGbIym-135" value="PK" style="shape=partialRectangle;connectable=0;fillColor=none;top=0;left=0;bottom=0;right=0;fontStyle=1;overflow=hidden;whiteSpace=wrap;html=1;" vertex="1" parent="GWg-XANY6kdctSkGbIym-134">
          <mxGeometry width="30" height="30" as="geometry">
            <mxRectangle width="30" height="30" as="alternateBounds" />
          </mxGeometry>
        </mxCell>
        <mxCell id="GWg-XANY6kdctSkGbIym-136" value="&lt;span style=&quot;font-weight: normal;&quot;&gt;Customer_ID (INT)&lt;/span&gt;" style="shape=partialRectangle;connectable=0;fillColor=none;top=0;left=0;bottom=0;right=0;align=left;spacingLeft=6;fontStyle=1;overflow=hidden;whiteSpace=wrap;html=1;" vertex="1" parent="GWg-XANY6kdctSkGbIym-134">
          <mxGeometry x="30" width="220" height="30" as="geometry">
            <mxRectangle width="220" height="30" as="alternateBounds" />
          </mxGeometry>
        </mxCell>
        <mxCell id="GWg-XANY6kdctSkGbIym-137" value="" style="shape=tableRow;horizontal=0;startSize=0;swimlaneHead=0;swimlaneBody=0;fillColor=none;collapsible=0;dropTarget=0;points=[[0,0.5],[1,0.5]];portConstraint=eastwest;top=0;left=0;right=0;bottom=0;" vertex="1" parent="GWg-XANY6kdctSkGbIym-133">
          <mxGeometry y="60" width="250" height="30" as="geometry" />
        </mxCell>
        <mxCell id="GWg-XANY6kdctSkGbIym-138" value="" style="shape=partialRectangle;connectable=0;fillColor=none;top=0;left=0;bottom=0;right=0;editable=1;overflow=hidden;whiteSpace=wrap;html=1;" vertex="1" parent="GWg-XANY6kdctSkGbIym-137">
          <mxGeometry width="30" height="30" as="geometry">
            <mxRectangle width="30" height="30" as="alternateBounds" />
          </mxGeometry>
        </mxCell>
        <mxCell id="GWg-XANY6kdctSkGbIym-139" value="Name (VARCHAR 255)" style="shape=partialRectangle;connectable=0;fillColor=none;top=0;left=0;bottom=0;right=0;align=left;spacingLeft=6;overflow=hidden;whiteSpace=wrap;html=1;" vertex="1" parent="GWg-XANY6kdctSkGbIym-137">
          <mxGeometry x="30" width="220" height="30" as="geometry">
            <mxRectangle width="220" height="30" as="alternateBounds" />
          </mxGeometry>
        </mxCell>
        <mxCell id="GWg-XANY6kdctSkGbIym-140" value="" style="shape=tableRow;horizontal=0;startSize=0;swimlaneHead=0;swimlaneBody=0;fillColor=none;collapsible=0;dropTarget=0;points=[[0,0.5],[1,0.5]];portConstraint=eastwest;top=0;left=0;right=0;bottom=0;" vertex="1" parent="GWg-XANY6kdctSkGbIym-133">
          <mxGeometry y="90" width="250" height="30" as="geometry" />
        </mxCell>
        <mxCell id="GWg-XANY6kdctSkGbIym-141" value="" style="shape=partialRectangle;connectable=0;fillColor=none;top=0;left=0;bottom=0;right=0;editable=1;overflow=hidden;whiteSpace=wrap;html=1;" vertex="1" parent="GWg-XANY6kdctSkGbIym-140">
          <mxGeometry width="30" height="30" as="geometry">
            <mxRectangle width="30" height="30" as="alternateBounds" />
          </mxGeometry>
        </mxCell>
        <mxCell id="GWg-XANY6kdctSkGbIym-142" value="Email (VARCHAR 255, UNIQUE)" style="shape=partialRectangle;connectable=0;fillColor=none;top=0;left=0;bottom=0;right=0;align=left;spacingLeft=6;overflow=hidden;whiteSpace=wrap;html=1;" vertex="1" parent="GWg-XANY6kdctSkGbIym-140">
          <mxGeometry x="30" width="220" height="30" as="geometry">
            <mxRectangle width="220" height="30" as="alternateBounds" />
          </mxGeometry>
        </mxCell>
        <mxCell id="GWg-XANY6kdctSkGbIym-143" value="" style="shape=tableRow;horizontal=0;startSize=0;swimlaneHead=0;swimlaneBody=0;fillColor=none;collapsible=0;dropTarget=0;points=[[0,0.5],[1,0.5]];portConstraint=eastwest;top=0;left=0;right=0;bottom=0;" vertex="1" parent="GWg-XANY6kdctSkGbIym-133">
          <mxGeometry y="120" width="250" height="30" as="geometry" />
        </mxCell>
        <mxCell id="GWg-XANY6kdctSkGbIym-144" value="" style="shape=partialRectangle;connectable=0;fillColor=none;top=0;left=0;bottom=0;right=0;editable=1;overflow=hidden;whiteSpace=wrap;html=1;" vertex="1" parent="GWg-XANY6kdctSkGbIym-143">
          <mxGeometry width="30" height="30" as="geometry">
            <mxRectangle width="30" height="30" as="alternateBounds" />
          </mxGeometry>
        </mxCell>
        <mxCell id="GWg-XANY6kdctSkGbIym-145" value="Phoe (VARCHAR 20)" style="shape=partialRectangle;connectable=0;fillColor=none;top=0;left=0;bottom=0;right=0;align=left;spacingLeft=6;overflow=hidden;whiteSpace=wrap;html=1;" vertex="1" parent="GWg-XANY6kdctSkGbIym-143">
          <mxGeometry x="30" width="220" height="30" as="geometry">
            <mxRectangle width="220" height="30" as="alternateBounds" />
          </mxGeometry>
        </mxCell>
        <mxCell id="GWg-XANY6kdctSkGbIym-146" value="" style="shape=tableRow;horizontal=0;startSize=0;swimlaneHead=0;swimlaneBody=0;fillColor=none;collapsible=0;dropTarget=0;points=[[0,0.5],[1,0.5]];portConstraint=eastwest;top=0;left=0;right=0;bottom=0;" vertex="1" parent="GWg-XANY6kdctSkGbIym-133">
          <mxGeometry y="150" width="250" height="30" as="geometry" />
        </mxCell>
        <mxCell id="GWg-XANY6kdctSkGbIym-147" value="" style="shape=partialRectangle;connectable=0;fillColor=none;top=0;left=0;bottom=0;right=0;editable=1;overflow=hidden;whiteSpace=wrap;html=1;" vertex="1" parent="GWg-XANY6kdctSkGbIym-146">
          <mxGeometry width="30" height="30" as="geometry">
            <mxRectangle width="30" height="30" as="alternateBounds" />
          </mxGeometry>
        </mxCell>
        <mxCell id="GWg-XANY6kdctSkGbIym-148" value="Address (TEXT)" style="shape=partialRectangle;connectable=0;fillColor=none;top=0;left=0;bottom=0;right=0;align=left;spacingLeft=6;overflow=hidden;whiteSpace=wrap;html=1;" vertex="1" parent="GWg-XANY6kdctSkGbIym-146">
          <mxGeometry x="30" width="220" height="30" as="geometry">
            <mxRectangle width="220" height="30" as="alternateBounds" />
          </mxGeometry>
        </mxCell>
        <mxCell id="GWg-XANY6kdctSkGbIym-149" value="Order" style="shape=table;startSize=30;container=1;collapsible=1;childLayout=tableLayout;fixedRows=1;rowLines=0;fontStyle=1;align=center;resizeLast=1;html=1;whiteSpace=wrap;fillColor=#dae8fc;strokeColor=#6c8ebf;" vertex="1" parent="1">
          <mxGeometry x="420" y="780" width="230.0000000000001" height="150" as="geometry" />
        </mxCell>
        <mxCell id="GWg-XANY6kdctSkGbIym-150" value="" style="shape=tableRow;horizontal=0;startSize=0;swimlaneHead=0;swimlaneBody=0;fillColor=none;collapsible=0;dropTarget=0;points=[[0,0.5],[1,0.5]];portConstraint=eastwest;top=0;left=0;right=0;bottom=0;html=1;" vertex="1" parent="GWg-XANY6kdctSkGbIym-149">
          <mxGeometry y="30" width="230.0000000000001" height="30" as="geometry" />
        </mxCell>
        <mxCell id="GWg-XANY6kdctSkGbIym-151" value="PK" style="shape=partialRectangle;connectable=0;fillColor=none;top=0;left=0;bottom=0;right=0;fontStyle=1;overflow=hidden;html=1;whiteSpace=wrap;" vertex="1" parent="GWg-XANY6kdctSkGbIym-150">
          <mxGeometry width="40" height="30" as="geometry">
            <mxRectangle width="40" height="30" as="alternateBounds" />
          </mxGeometry>
        </mxCell>
        <mxCell id="GWg-XANY6kdctSkGbIym-152" value="Order_ID (INT)" style="shape=partialRectangle;connectable=0;fillColor=none;top=0;left=0;bottom=0;right=0;align=left;spacingLeft=6;fontStyle=0;overflow=hidden;html=1;whiteSpace=wrap;" vertex="1" parent="GWg-XANY6kdctSkGbIym-150">
          <mxGeometry x="40" width="190.0000000000001" height="30" as="geometry">
            <mxRectangle width="190.0000000000001" height="30" as="alternateBounds" />
          </mxGeometry>
        </mxCell>
        <mxCell id="GWg-XANY6kdctSkGbIym-153" value="" style="shape=tableRow;horizontal=0;startSize=0;swimlaneHead=0;swimlaneBody=0;fillColor=none;collapsible=0;dropTarget=0;points=[[0,0.5],[1,0.5]];portConstraint=eastwest;top=0;left=0;right=0;bottom=1;html=1;" vertex="1" parent="GWg-XANY6kdctSkGbIym-149">
          <mxGeometry y="60" width="230.0000000000001" height="30" as="geometry" />
        </mxCell>
        <mxCell id="GWg-XANY6kdctSkGbIym-154" value="FK" style="shape=partialRectangle;connectable=0;fillColor=none;top=0;left=0;bottom=0;right=0;fontStyle=1;overflow=hidden;html=1;whiteSpace=wrap;" vertex="1" parent="GWg-XANY6kdctSkGbIym-153">
          <mxGeometry width="40" height="30" as="geometry">
            <mxRectangle width="40" height="30" as="alternateBounds" />
          </mxGeometry>
        </mxCell>
        <mxCell id="GWg-XANY6kdctSkGbIym-155" value="Customer_ID (INT)" style="shape=partialRectangle;connectable=0;fillColor=none;top=0;left=0;bottom=0;right=0;align=left;spacingLeft=6;fontStyle=0;overflow=hidden;html=1;whiteSpace=wrap;" vertex="1" parent="GWg-XANY6kdctSkGbIym-153">
          <mxGeometry x="40" width="190.0000000000001" height="30" as="geometry">
            <mxRectangle width="190.0000000000001" height="30" as="alternateBounds" />
          </mxGeometry>
        </mxCell>
        <mxCell id="GWg-XANY6kdctSkGbIym-156" value="" style="shape=tableRow;horizontal=0;startSize=0;swimlaneHead=0;swimlaneBody=0;fillColor=none;collapsible=0;dropTarget=0;points=[[0,0.5],[1,0.5]];portConstraint=eastwest;top=0;left=0;right=0;bottom=0;html=1;" vertex="1" parent="GWg-XANY6kdctSkGbIym-149">
          <mxGeometry y="90" width="230.0000000000001" height="30" as="geometry" />
        </mxCell>
        <mxCell id="GWg-XANY6kdctSkGbIym-157" value="" style="shape=partialRectangle;connectable=0;fillColor=none;top=0;left=0;bottom=0;right=0;editable=1;overflow=hidden;html=1;whiteSpace=wrap;" vertex="1" parent="GWg-XANY6kdctSkGbIym-156">
          <mxGeometry width="40" height="30" as="geometry">
            <mxRectangle width="40" height="30" as="alternateBounds" />
          </mxGeometry>
        </mxCell>
        <mxCell id="GWg-XANY6kdctSkGbIym-158" value="Order_Date (DATE)" style="shape=partialRectangle;connectable=0;fillColor=none;top=0;left=0;bottom=0;right=0;align=left;spacingLeft=6;overflow=hidden;html=1;whiteSpace=wrap;" vertex="1" parent="GWg-XANY6kdctSkGbIym-156">
          <mxGeometry x="40" width="190.0000000000001" height="30" as="geometry">
            <mxRectangle width="190.0000000000001" height="30" as="alternateBounds" />
          </mxGeometry>
        </mxCell>
        <mxCell id="GWg-XANY6kdctSkGbIym-159" value="" style="shape=tableRow;horizontal=0;startSize=0;swimlaneHead=0;swimlaneBody=0;fillColor=none;collapsible=0;dropTarget=0;points=[[0,0.5],[1,0.5]];portConstraint=eastwest;top=0;left=0;right=0;bottom=0;html=1;" vertex="1" parent="GWg-XANY6kdctSkGbIym-149">
          <mxGeometry y="120" width="230.0000000000001" height="30" as="geometry" />
        </mxCell>
        <mxCell id="GWg-XANY6kdctSkGbIym-160" value="" style="shape=partialRectangle;connectable=0;fillColor=none;top=0;left=0;bottom=0;right=0;editable=1;overflow=hidden;html=1;whiteSpace=wrap;" vertex="1" parent="GWg-XANY6kdctSkGbIym-159">
          <mxGeometry width="40" height="30" as="geometry">
            <mxRectangle width="40" height="30" as="alternateBounds" />
          </mxGeometry>
        </mxCell>
        <mxCell id="GWg-XANY6kdctSkGbIym-161" value="Total_Amount (DEMICAL 10, 2)" style="shape=partialRectangle;connectable=0;fillColor=none;top=0;left=0;bottom=0;right=0;align=left;spacingLeft=6;overflow=hidden;html=1;whiteSpace=wrap;" vertex="1" parent="GWg-XANY6kdctSkGbIym-159">
          <mxGeometry x="40" width="190.0000000000001" height="30" as="geometry">
            <mxRectangle width="190.0000000000001" height="30" as="alternateBounds" />
          </mxGeometry>
        </mxCell>
        <mxCell id="GWg-XANY6kdctSkGbIym-162" value="OrderDetails" style="shape=table;startSize=30;container=1;collapsible=1;childLayout=tableLayout;fixedRows=1;rowLines=0;fontStyle=1;align=center;resizeLast=1;html=1;whiteSpace=wrap;fillColor=#dae8fc;strokeColor=#6c8ebf;" vertex="1" parent="1">
          <mxGeometry x="740" y="780" width="260" height="150" as="geometry" />
        </mxCell>
        <mxCell id="GWg-XANY6kdctSkGbIym-163" value="" style="shape=tableRow;horizontal=0;startSize=0;swimlaneHead=0;swimlaneBody=0;fillColor=none;collapsible=0;dropTarget=0;points=[[0,0.5],[1,0.5]];portConstraint=eastwest;top=0;left=0;right=0;bottom=0;html=1;" vertex="1" parent="GWg-XANY6kdctSkGbIym-162">
          <mxGeometry y="30" width="260" height="30" as="geometry" />
        </mxCell>
        <mxCell id="GWg-XANY6kdctSkGbIym-164" value="PK,FK" style="shape=partialRectangle;connectable=0;fillColor=none;top=0;left=0;bottom=0;right=0;fontStyle=1;overflow=hidden;html=1;whiteSpace=wrap;" vertex="1" parent="GWg-XANY6kdctSkGbIym-163">
          <mxGeometry width="55" height="30" as="geometry">
            <mxRectangle width="55" height="30" as="alternateBounds" />
          </mxGeometry>
        </mxCell>
        <mxCell id="GWg-XANY6kdctSkGbIym-165" value="Order_ID (INT)" style="shape=partialRectangle;connectable=0;fillColor=none;top=0;left=0;bottom=0;right=0;align=left;spacingLeft=6;fontStyle=0;overflow=hidden;html=1;whiteSpace=wrap;" vertex="1" parent="GWg-XANY6kdctSkGbIym-163">
          <mxGeometry x="55" width="205" height="30" as="geometry">
            <mxRectangle width="205" height="30" as="alternateBounds" />
          </mxGeometry>
        </mxCell>
        <mxCell id="GWg-XANY6kdctSkGbIym-166" value="" style="shape=tableRow;horizontal=0;startSize=0;swimlaneHead=0;swimlaneBody=0;fillColor=none;collapsible=0;dropTarget=0;points=[[0,0.5],[1,0.5]];portConstraint=eastwest;top=0;left=0;right=0;bottom=1;html=1;" vertex="1" parent="GWg-XANY6kdctSkGbIym-162">
          <mxGeometry y="60" width="260" height="30" as="geometry" />
        </mxCell>
        <mxCell id="GWg-XANY6kdctSkGbIym-167" value="PK,FK" style="shape=partialRectangle;connectable=0;fillColor=none;top=0;left=0;bottom=0;right=0;fontStyle=1;overflow=hidden;html=1;whiteSpace=wrap;" vertex="1" parent="GWg-XANY6kdctSkGbIym-166">
          <mxGeometry width="55" height="30" as="geometry">
            <mxRectangle width="55" height="30" as="alternateBounds" />
          </mxGeometry>
        </mxCell>
        <mxCell id="GWg-XANY6kdctSkGbIym-168" value="Book_ID (INT)" style="shape=partialRectangle;connectable=0;fillColor=none;top=0;left=0;bottom=0;right=0;align=left;spacingLeft=6;fontStyle=0;overflow=hidden;html=1;whiteSpace=wrap;" vertex="1" parent="GWg-XANY6kdctSkGbIym-166">
          <mxGeometry x="55" width="205" height="30" as="geometry">
            <mxRectangle width="205" height="30" as="alternateBounds" />
          </mxGeometry>
        </mxCell>
        <mxCell id="GWg-XANY6kdctSkGbIym-169" value="" style="shape=tableRow;horizontal=0;startSize=0;swimlaneHead=0;swimlaneBody=0;fillColor=none;collapsible=0;dropTarget=0;points=[[0,0.5],[1,0.5]];portConstraint=eastwest;top=0;left=0;right=0;bottom=0;html=1;" vertex="1" parent="GWg-XANY6kdctSkGbIym-162">
          <mxGeometry y="90" width="260" height="30" as="geometry" />
        </mxCell>
        <mxCell id="GWg-XANY6kdctSkGbIym-170" value="" style="shape=partialRectangle;connectable=0;fillColor=none;top=0;left=0;bottom=0;right=0;editable=1;overflow=hidden;html=1;whiteSpace=wrap;" vertex="1" parent="GWg-XANY6kdctSkGbIym-169">
          <mxGeometry width="55" height="30" as="geometry">
            <mxRectangle width="55" height="30" as="alternateBounds" />
          </mxGeometry>
        </mxCell>
        <mxCell id="GWg-XANY6kdctSkGbIym-171" value="Quantity (INT)" style="shape=partialRectangle;connectable=0;fillColor=none;top=0;left=0;bottom=0;right=0;align=left;spacingLeft=6;overflow=hidden;html=1;whiteSpace=wrap;" vertex="1" parent="GWg-XANY6kdctSkGbIym-169">
          <mxGeometry x="55" width="205" height="30" as="geometry">
            <mxRectangle width="205" height="30" as="alternateBounds" />
          </mxGeometry>
        </mxCell>
        <mxCell id="GWg-XANY6kdctSkGbIym-172" value="" style="shape=tableRow;horizontal=0;startSize=0;swimlaneHead=0;swimlaneBody=0;fillColor=none;collapsible=0;dropTarget=0;points=[[0,0.5],[1,0.5]];portConstraint=eastwest;top=0;left=0;right=0;bottom=0;html=1;" vertex="1" parent="GWg-XANY6kdctSkGbIym-162">
          <mxGeometry y="120" width="260" height="30" as="geometry" />
        </mxCell>
        <mxCell id="GWg-XANY6kdctSkGbIym-173" value="" style="shape=partialRectangle;connectable=0;fillColor=none;top=0;left=0;bottom=0;right=0;editable=1;overflow=hidden;html=1;whiteSpace=wrap;" vertex="1" parent="GWg-XANY6kdctSkGbIym-172">
          <mxGeometry width="55" height="30" as="geometry">
            <mxRectangle width="55" height="30" as="alternateBounds" />
          </mxGeometry>
        </mxCell>
        <mxCell id="GWg-XANY6kdctSkGbIym-174" value="Price_Per_Unit (DEMICAL 10, 2)" style="shape=partialRectangle;connectable=0;fillColor=none;top=0;left=0;bottom=0;right=0;align=left;spacingLeft=6;overflow=hidden;html=1;whiteSpace=wrap;" vertex="1" parent="GWg-XANY6kdctSkGbIym-172">
          <mxGeometry x="55" width="205" height="30" as="geometry">
            <mxRectangle width="205" height="30" as="alternateBounds" />
          </mxGeometry>
        </mxCell>
        <mxCell id="GWg-XANY6kdctSkGbIym-175" value="Book" style="shape=table;startSize=30;container=1;collapsible=1;childLayout=tableLayout;fixedRows=1;rowLines=0;fontStyle=1;align=center;resizeLast=1;html=1;fillColor=#dae8fc;strokeColor=#6c8ebf;" vertex="1" parent="1">
          <mxGeometry x="1110" y="780" width="180" height="180" as="geometry" />
        </mxCell>
        <mxCell id="GWg-XANY6kdctSkGbIym-176" value="" style="shape=tableRow;horizontal=0;startSize=0;swimlaneHead=0;swimlaneBody=0;fillColor=none;collapsible=0;dropTarget=0;points=[[0,0.5],[1,0.5]];portConstraint=eastwest;top=0;left=0;right=0;bottom=1;" vertex="1" parent="GWg-XANY6kdctSkGbIym-175">
          <mxGeometry y="30" width="180" height="30" as="geometry" />
        </mxCell>
        <mxCell id="GWg-XANY6kdctSkGbIym-177" value="PK" style="shape=partialRectangle;connectable=0;fillColor=none;top=0;left=0;bottom=0;right=0;fontStyle=1;overflow=hidden;whiteSpace=wrap;html=1;" vertex="1" parent="GWg-XANY6kdctSkGbIym-176">
          <mxGeometry width="30" height="30" as="geometry">
            <mxRectangle width="30" height="30" as="alternateBounds" />
          </mxGeometry>
        </mxCell>
        <mxCell id="GWg-XANY6kdctSkGbIym-178" value="Book_ID (INT)" style="shape=partialRectangle;connectable=0;fillColor=none;top=0;left=0;bottom=0;right=0;align=left;spacingLeft=6;fontStyle=0;overflow=hidden;whiteSpace=wrap;html=1;" vertex="1" parent="GWg-XANY6kdctSkGbIym-176">
          <mxGeometry x="30" width="150" height="30" as="geometry">
            <mxRectangle width="150" height="30" as="alternateBounds" />
          </mxGeometry>
        </mxCell>
        <mxCell id="GWg-XANY6kdctSkGbIym-179" value="" style="shape=tableRow;horizontal=0;startSize=0;swimlaneHead=0;swimlaneBody=0;fillColor=none;collapsible=0;dropTarget=0;points=[[0,0.5],[1,0.5]];portConstraint=eastwest;top=0;left=0;right=0;bottom=0;" vertex="1" parent="GWg-XANY6kdctSkGbIym-175">
          <mxGeometry y="60" width="180" height="30" as="geometry" />
        </mxCell>
        <mxCell id="GWg-XANY6kdctSkGbIym-180" value="" style="shape=partialRectangle;connectable=0;fillColor=none;top=0;left=0;bottom=0;right=0;editable=1;overflow=hidden;whiteSpace=wrap;html=1;" vertex="1" parent="GWg-XANY6kdctSkGbIym-179">
          <mxGeometry width="30" height="30" as="geometry">
            <mxRectangle width="30" height="30" as="alternateBounds" />
          </mxGeometry>
        </mxCell>
        <mxCell id="GWg-XANY6kdctSkGbIym-181" value="Title (VARCHAR 255)" style="shape=partialRectangle;connectable=0;fillColor=none;top=0;left=0;bottom=0;right=0;align=left;spacingLeft=6;overflow=hidden;whiteSpace=wrap;html=1;" vertex="1" parent="GWg-XANY6kdctSkGbIym-179">
          <mxGeometry x="30" width="150" height="30" as="geometry">
            <mxRectangle width="150" height="30" as="alternateBounds" />
          </mxGeometry>
        </mxCell>
        <mxCell id="GWg-XANY6kdctSkGbIym-182" value="" style="shape=tableRow;horizontal=0;startSize=0;swimlaneHead=0;swimlaneBody=0;fillColor=none;collapsible=0;dropTarget=0;points=[[0,0.5],[1,0.5]];portConstraint=eastwest;top=0;left=0;right=0;bottom=0;" vertex="1" parent="GWg-XANY6kdctSkGbIym-175">
          <mxGeometry y="90" width="180" height="30" as="geometry" />
        </mxCell>
        <mxCell id="GWg-XANY6kdctSkGbIym-183" value="" style="shape=partialRectangle;connectable=0;fillColor=none;top=0;left=0;bottom=0;right=0;editable=1;overflow=hidden;whiteSpace=wrap;html=1;" vertex="1" parent="GWg-XANY6kdctSkGbIym-182">
          <mxGeometry width="30" height="30" as="geometry">
            <mxRectangle width="30" height="30" as="alternateBounds" />
          </mxGeometry>
        </mxCell>
        <mxCell id="GWg-XANY6kdctSkGbIym-184" value="ISBN (VARCHAR&amp;nbsp; 20)" style="shape=partialRectangle;connectable=0;fillColor=none;top=0;left=0;bottom=0;right=0;align=left;spacingLeft=6;overflow=hidden;whiteSpace=wrap;html=1;" vertex="1" parent="GWg-XANY6kdctSkGbIym-182">
          <mxGeometry x="30" width="150" height="30" as="geometry">
            <mxRectangle width="150" height="30" as="alternateBounds" />
          </mxGeometry>
        </mxCell>
        <mxCell id="GWg-XANY6kdctSkGbIym-185" value="" style="shape=tableRow;horizontal=0;startSize=0;swimlaneHead=0;swimlaneBody=0;fillColor=none;collapsible=0;dropTarget=0;points=[[0,0.5],[1,0.5]];portConstraint=eastwest;top=0;left=0;right=0;bottom=0;" vertex="1" parent="GWg-XANY6kdctSkGbIym-175">
          <mxGeometry y="120" width="180" height="30" as="geometry" />
        </mxCell>
        <mxCell id="GWg-XANY6kdctSkGbIym-186" value="" style="shape=partialRectangle;connectable=0;fillColor=none;top=0;left=0;bottom=0;right=0;editable=1;overflow=hidden;whiteSpace=wrap;html=1;" vertex="1" parent="GWg-XANY6kdctSkGbIym-185">
          <mxGeometry width="30" height="30" as="geometry">
            <mxRectangle width="30" height="30" as="alternateBounds" />
          </mxGeometry>
        </mxCell>
        <mxCell id="GWg-XANY6kdctSkGbIym-187" value="Genre (VARCHAR 100)" style="shape=partialRectangle;connectable=0;fillColor=none;top=0;left=0;bottom=0;right=0;align=left;spacingLeft=6;overflow=hidden;whiteSpace=wrap;html=1;" vertex="1" parent="GWg-XANY6kdctSkGbIym-185">
          <mxGeometry x="30" width="150" height="30" as="geometry">
            <mxRectangle width="150" height="30" as="alternateBounds" />
          </mxGeometry>
        </mxCell>
        <mxCell id="GWg-XANY6kdctSkGbIym-188" value="" style="shape=tableRow;horizontal=0;startSize=0;swimlaneHead=0;swimlaneBody=0;fillColor=none;collapsible=0;dropTarget=0;points=[[0,0.5],[1,0.5]];portConstraint=eastwest;top=0;left=0;right=0;bottom=0;" vertex="1" parent="GWg-XANY6kdctSkGbIym-175">
          <mxGeometry y="150" width="180" height="30" as="geometry" />
        </mxCell>
        <mxCell id="GWg-XANY6kdctSkGbIym-189" value="" style="shape=partialRectangle;connectable=0;fillColor=none;top=0;left=0;bottom=0;right=0;editable=1;overflow=hidden;whiteSpace=wrap;html=1;" vertex="1" parent="GWg-XANY6kdctSkGbIym-188">
          <mxGeometry width="30" height="30" as="geometry">
            <mxRectangle width="30" height="30" as="alternateBounds" />
          </mxGeometry>
        </mxCell>
        <mxCell id="GWg-XANY6kdctSkGbIym-190" value="Price (DEMICAL 10, 2)" style="shape=partialRectangle;connectable=0;fillColor=none;top=0;left=0;bottom=0;right=0;align=left;spacingLeft=6;overflow=hidden;whiteSpace=wrap;html=1;" vertex="1" parent="GWg-XANY6kdctSkGbIym-188">
          <mxGeometry x="30" width="150" height="30" as="geometry">
            <mxRectangle width="150" height="30" as="alternateBounds" />
          </mxGeometry>
        </mxCell>
        <mxCell id="GWg-XANY6kdctSkGbIym-191" value="Book_Author" style="shape=table;startSize=30;container=1;collapsible=1;childLayout=tableLayout;fixedRows=1;rowLines=0;fontStyle=1;align=center;resizeLast=1;html=1;whiteSpace=wrap;fillColor=#dae8fc;strokeColor=#6c8ebf;" vertex="1" parent="1">
          <mxGeometry x="1400" y="780" width="180" height="90" as="geometry" />
        </mxCell>
        <mxCell id="GWg-XANY6kdctSkGbIym-192" value="" style="shape=tableRow;horizontal=0;startSize=0;swimlaneHead=0;swimlaneBody=0;fillColor=none;collapsible=0;dropTarget=0;points=[[0,0.5],[1,0.5]];portConstraint=eastwest;top=0;left=0;right=0;bottom=0;html=1;" vertex="1" parent="GWg-XANY6kdctSkGbIym-191">
          <mxGeometry y="30" width="180" height="30" as="geometry" />
        </mxCell>
        <mxCell id="GWg-XANY6kdctSkGbIym-193" value="PK,FK" style="shape=partialRectangle;connectable=0;fillColor=none;top=0;left=0;bottom=0;right=0;fontStyle=1;overflow=hidden;html=1;whiteSpace=wrap;" vertex="1" parent="GWg-XANY6kdctSkGbIym-192">
          <mxGeometry width="60" height="30" as="geometry">
            <mxRectangle width="60" height="30" as="alternateBounds" />
          </mxGeometry>
        </mxCell>
        <mxCell id="GWg-XANY6kdctSkGbIym-194" value="&lt;span style=&quot;&quot;&gt;Book_ID (INT)&lt;/span&gt;" style="shape=partialRectangle;connectable=0;fillColor=none;top=0;left=0;bottom=0;right=0;align=left;spacingLeft=6;fontStyle=0;overflow=hidden;html=1;whiteSpace=wrap;" vertex="1" parent="GWg-XANY6kdctSkGbIym-192">
          <mxGeometry x="60" width="120" height="30" as="geometry">
            <mxRectangle width="120" height="30" as="alternateBounds" />
          </mxGeometry>
        </mxCell>
        <mxCell id="GWg-XANY6kdctSkGbIym-195" value="" style="shape=tableRow;horizontal=0;startSize=0;swimlaneHead=0;swimlaneBody=0;fillColor=none;collapsible=0;dropTarget=0;points=[[0,0.5],[1,0.5]];portConstraint=eastwest;top=0;left=0;right=0;bottom=1;html=1;" vertex="1" parent="GWg-XANY6kdctSkGbIym-191">
          <mxGeometry y="60" width="180" height="30" as="geometry" />
        </mxCell>
        <mxCell id="GWg-XANY6kdctSkGbIym-196" value="PK,FK" style="shape=partialRectangle;connectable=0;fillColor=none;top=0;left=0;bottom=0;right=0;fontStyle=1;overflow=hidden;html=1;whiteSpace=wrap;" vertex="1" parent="GWg-XANY6kdctSkGbIym-195">
          <mxGeometry width="60" height="30" as="geometry">
            <mxRectangle width="60" height="30" as="alternateBounds" />
          </mxGeometry>
        </mxCell>
        <mxCell id="GWg-XANY6kdctSkGbIym-197" value="&lt;span style=&quot;&quot;&gt;Author_ID (INT)&lt;/span&gt;" style="shape=partialRectangle;connectable=0;fillColor=none;top=0;left=0;bottom=0;right=0;align=left;spacingLeft=6;fontStyle=0;overflow=hidden;html=1;whiteSpace=wrap;" vertex="1" parent="GWg-XANY6kdctSkGbIym-195">
          <mxGeometry x="60" width="120" height="30" as="geometry">
            <mxRectangle width="120" height="30" as="alternateBounds" />
          </mxGeometry>
        </mxCell>
        <mxCell id="GWg-XANY6kdctSkGbIym-204" value="Author" style="shape=table;startSize=30;container=1;collapsible=1;childLayout=tableLayout;fixedRows=1;rowLines=0;fontStyle=1;align=center;resizeLast=1;html=1;fillColor=#dae8fc;strokeColor=#6c8ebf;" vertex="1" parent="1">
          <mxGeometry x="1670" y="780" width="180" height="120" as="geometry" />
        </mxCell>
        <mxCell id="GWg-XANY6kdctSkGbIym-205" value="" style="shape=tableRow;horizontal=0;startSize=0;swimlaneHead=0;swimlaneBody=0;fillColor=none;collapsible=0;dropTarget=0;points=[[0,0.5],[1,0.5]];portConstraint=eastwest;top=0;left=0;right=0;bottom=1;" vertex="1" parent="GWg-XANY6kdctSkGbIym-204">
          <mxGeometry y="30" width="180" height="30" as="geometry" />
        </mxCell>
        <mxCell id="GWg-XANY6kdctSkGbIym-206" value="PK" style="shape=partialRectangle;connectable=0;fillColor=none;top=0;left=0;bottom=0;right=0;fontStyle=1;overflow=hidden;whiteSpace=wrap;html=1;" vertex="1" parent="GWg-XANY6kdctSkGbIym-205">
          <mxGeometry width="30" height="30" as="geometry">
            <mxRectangle width="30" height="30" as="alternateBounds" />
          </mxGeometry>
        </mxCell>
        <mxCell id="GWg-XANY6kdctSkGbIym-207" value="Author_Id (INT)" style="shape=partialRectangle;connectable=0;fillColor=none;top=0;left=0;bottom=0;right=0;align=left;spacingLeft=6;fontStyle=0;overflow=hidden;whiteSpace=wrap;html=1;" vertex="1" parent="GWg-XANY6kdctSkGbIym-205">
          <mxGeometry x="30" width="150" height="30" as="geometry">
            <mxRectangle width="150" height="30" as="alternateBounds" />
          </mxGeometry>
        </mxCell>
        <mxCell id="GWg-XANY6kdctSkGbIym-208" value="" style="shape=tableRow;horizontal=0;startSize=0;swimlaneHead=0;swimlaneBody=0;fillColor=none;collapsible=0;dropTarget=0;points=[[0,0.5],[1,0.5]];portConstraint=eastwest;top=0;left=0;right=0;bottom=0;" vertex="1" parent="GWg-XANY6kdctSkGbIym-204">
          <mxGeometry y="60" width="180" height="30" as="geometry" />
        </mxCell>
        <mxCell id="GWg-XANY6kdctSkGbIym-209" value="" style="shape=partialRectangle;connectable=0;fillColor=none;top=0;left=0;bottom=0;right=0;editable=1;overflow=hidden;whiteSpace=wrap;html=1;" vertex="1" parent="GWg-XANY6kdctSkGbIym-208">
          <mxGeometry width="30" height="30" as="geometry">
            <mxRectangle width="30" height="30" as="alternateBounds" />
          </mxGeometry>
        </mxCell>
        <mxCell id="GWg-XANY6kdctSkGbIym-210" value="Name (VARCHAR 255)" style="shape=partialRectangle;connectable=0;fillColor=none;top=0;left=0;bottom=0;right=0;align=left;spacingLeft=6;overflow=hidden;whiteSpace=wrap;html=1;" vertex="1" parent="GWg-XANY6kdctSkGbIym-208">
          <mxGeometry x="30" width="150" height="30" as="geometry">
            <mxRectangle width="150" height="30" as="alternateBounds" />
          </mxGeometry>
        </mxCell>
        <mxCell id="GWg-XANY6kdctSkGbIym-211" value="" style="shape=tableRow;horizontal=0;startSize=0;swimlaneHead=0;swimlaneBody=0;fillColor=none;collapsible=0;dropTarget=0;points=[[0,0.5],[1,0.5]];portConstraint=eastwest;top=0;left=0;right=0;bottom=0;" vertex="1" parent="GWg-XANY6kdctSkGbIym-204">
          <mxGeometry y="90" width="180" height="30" as="geometry" />
        </mxCell>
        <mxCell id="GWg-XANY6kdctSkGbIym-212" value="" style="shape=partialRectangle;connectable=0;fillColor=none;top=0;left=0;bottom=0;right=0;editable=1;overflow=hidden;whiteSpace=wrap;html=1;" vertex="1" parent="GWg-XANY6kdctSkGbIym-211">
          <mxGeometry width="30" height="30" as="geometry">
            <mxRectangle width="30" height="30" as="alternateBounds" />
          </mxGeometry>
        </mxCell>
        <mxCell id="GWg-XANY6kdctSkGbIym-213" value="Country (VARCHAR 100)" style="shape=partialRectangle;connectable=0;fillColor=none;top=0;left=0;bottom=0;right=0;align=left;spacingLeft=6;overflow=hidden;whiteSpace=wrap;html=1;" vertex="1" parent="GWg-XANY6kdctSkGbIym-211">
          <mxGeometry x="30" width="150" height="30" as="geometry">
            <mxRectangle width="150" height="30" as="alternateBounds" />
          </mxGeometry>
        </mxCell>
        <mxCell id="GWg-XANY6kdctSkGbIym-217" value="" style="edgeStyle=entityRelationEdgeStyle;fontSize=12;html=1;endArrow=ERoneToMany;rounded=0;entryX=0;entryY=0.5;entryDx=0;entryDy=0;" edge="1" parent="1" target="GWg-XANY6kdctSkGbIym-153">
          <mxGeometry width="100" height="100" relative="1" as="geometry">
            <mxPoint x="330" y="830" as="sourcePoint" />
            <mxPoint x="390" y="861" as="targetPoint" />
            <Array as="points">
              <mxPoint x="360" y="770" />
              <mxPoint x="390" y="830" />
            </Array>
          </mxGeometry>
        </mxCell>
        <mxCell id="GWg-XANY6kdctSkGbIym-219" value="" style="endArrow=ERoneToMany;html=1;rounded=0;shadow=1;endFill=0;entryX=0;entryY=0.5;entryDx=0;entryDy=0;" edge="1" parent="1" target="GWg-XANY6kdctSkGbIym-163">
          <mxGeometry width="50" height="50" relative="1" as="geometry">
            <mxPoint x="650" y="824.1700000000001" as="sourcePoint" />
            <mxPoint x="720" y="824.1700000000001" as="targetPoint" />
            <Array as="points" />
          </mxGeometry>
        </mxCell>
        <mxCell id="GWg-XANY6kdctSkGbIym-220" value="" style="edgeStyle=entityRelationEdgeStyle;fontSize=12;html=1;endArrow=ERoneToMany;rounded=0;entryX=0;entryY=0.5;entryDx=0;entryDy=0;" edge="1" parent="1">
          <mxGeometry width="100" height="100" relative="1" as="geometry">
            <mxPoint x="700" y="542.5" as="sourcePoint" />
            <mxPoint x="770" y="513.5" as="targetPoint" />
          </mxGeometry>
        </mxCell>
        <mxCell id="GWg-XANY6kdctSkGbIym-222" value="" style="endArrow=ERoneToMany;html=1;rounded=0;shadow=1;endFill=0;entryX=0;entryY=0.5;entryDx=0;entryDy=0;" edge="1" parent="1" target="GWg-XANY6kdctSkGbIym-192">
          <mxGeometry width="50" height="50" relative="1" as="geometry">
            <mxPoint x="1290" y="825.5799999999999" as="sourcePoint" />
            <mxPoint x="1370" y="824.1700000000001" as="targetPoint" />
            <Array as="points" />
          </mxGeometry>
        </mxCell>
        <mxCell id="GWg-XANY6kdctSkGbIym-223" value="" style="edgeStyle=entityRelationEdgeStyle;fontSize=12;html=1;endArrow=ERoneToMany;rounded=0;exitX=0;exitY=0.5;exitDx=0;exitDy=0;entryX=1;entryY=0.5;entryDx=0;entryDy=0;" edge="1" parent="1" source="GWg-XANY6kdctSkGbIym-205" target="GWg-XANY6kdctSkGbIym-195">
          <mxGeometry width="100" height="100" relative="1" as="geometry">
            <mxPoint x="1680" y="710" as="sourcePoint" />
            <mxPoint x="1610" y="740" as="targetPoint" />
          </mxGeometry>
        </mxCell>
        <mxCell id="GWg-XANY6kdctSkGbIym-224" value="&lt;font style=&quot;font-size: 22px;&quot;&gt;&lt;span class=&quot;fontstyle0&quot; style=&quot;&quot;&gt;1.1. Conceptual Model&lt;/span&gt;&lt;span class=&quot;fontstyle2&quot; style=&quot;&quot;&gt;: Create an ER diagram showing entities, attributes, and relationships (hint: 1:1, 1:M, M:M)&amp;nbsp;&lt;/span&gt;&lt;br style=&quot;font-variant-numeric: normal; font-variant-east-asian: normal; font-variant-alternates: normal; font-variant-position: normal; font-variant-emoji: normal; line-height: normal; text-wrap-mode: wrap; text-size-adjust: auto;&quot;&gt;&amp;nbsp; &amp;nbsp; &amp;nbsp; &amp;nbsp;&amp;nbsp;&lt;/font&gt;" style="text;html=1;align=left;verticalAlign=middle;resizable=0;points=[];autosize=1;strokeColor=none;fillColor=none;" vertex="1" parent="1">
          <mxGeometry x="50" y="170" width="1130" height="70" as="geometry" />
        </mxCell>
        <mxCell id="GWg-XANY6kdctSkGbIym-226" value="&lt;div style=&quot;&quot;&gt;&lt;font style=&quot;font-size: 22px;&quot;&gt;&lt;span class=&quot;fontstyle0&quot; style=&quot;background-color: transparent; color: light-dark(rgb(0, 0, 0), rgb(255, 255, 255));&quot;&gt;1.2. Logical Model&lt;/span&gt;&lt;span class=&quot;fontstyle2&quot; style=&quot;background-color: transparent; color: light-dark(rgb(0, 0, 0), rgb(255, 255, 255));&quot;&gt;: Convert entities into tables with primary and foreign keys&amp;nbsp;&lt;/span&gt;&lt;/font&gt;&lt;/div&gt;" style="text;html=1;align=left;verticalAlign=middle;resizable=0;points=[];autosize=1;strokeColor=none;fillColor=none;" vertex="1" parent="1">
          <mxGeometry x="50" y="385" width="770" height="40" as="geometry" />
        </mxCell>
        <mxCell id="GWg-XANY6kdctSkGbIym-227" value="&lt;font style=&quot;font-size: 22px;&quot;&gt;&lt;font style=&quot;&quot;&gt;&lt;span style=&quot;&quot; class=&quot;fontstyle0&quot;&gt;1.3. Physical Model&lt;/span&gt;&lt;span style=&quot;&quot; class=&quot;fontstyle2&quot;&gt;: Assign data types to attributes&lt;/span&gt;&lt;/font&gt; &lt;/font&gt;&lt;div&gt;&lt;br&gt;&lt;/div&gt;" style="text;whiteSpace=wrap;html=1;" vertex="1" parent="1">
          <mxGeometry x="50" y="700" width="500" height="50" as="geometry" />
        </mxCell>
        <mxCell id="GWg-XANY6kdctSkGbIym-229" value="&lt;span class=&quot;fontstyle0&quot;&gt;&lt;font style=&quot;font-size: 22px;&quot;&gt;Task 1: Conceptual, Logical, and Physical Data Modeling&lt;/font&gt;&lt;/span&gt; &lt;div&gt;&lt;br/&gt;&lt;/div&gt;" style="text;html=1;align=center;verticalAlign=middle;resizable=0;points=[];autosize=1;strokeColor=none;fillColor=none;" vertex="1" parent="1">
          <mxGeometry x="520" y="90" width="580" height="50" as="geometry" />
        </mxCell>
        <mxCell id="GWg-XANY6kdctSkGbIym-230" value="&lt;font style=&quot;font-size: 22px;&quot;&gt;Tilabov Azizbek&amp;nbsp;&lt;/font&gt;" style="text;html=1;align=center;verticalAlign=middle;resizable=0;points=[];autosize=1;strokeColor=none;fillColor=none;" vertex="1" parent="1">
          <mxGeometry x="710" y="30" width="180" height="40" as="geometry" />
        </mxCell>
        <mxCell id="GWg-XANY6kdctSkGbIym-231" value="&lt;font style=&quot;font-size: 22px;&quot;&gt;&lt;span class=&quot;fontstyle0&quot;&gt;Task 2: Normalization (1NF &lt;/span&gt;&lt;span class=&quot;fontstyle2&quot;&gt;→ &lt;/span&gt;&lt;span class=&quot;fontstyle0&quot;&gt;2NF &lt;/span&gt;&lt;span class=&quot;fontstyle2&quot;&gt;→ &lt;/span&gt;&lt;span class=&quot;fontstyle0&quot;&gt;3NF)&lt;/span&gt; &lt;br&gt;&lt;/font&gt;" style="text;whiteSpace=wrap;html=1;" vertex="1" parent="1">
          <mxGeometry x="550" y="1020" width="440" height="50" as="geometry" />
        </mxCell>
        <mxCell id="GWg-XANY6kdctSkGbIym-232" value="" style="shape=table;startSize=0;container=1;collapsible=0;childLayout=tableLayout;fontSize=16;" vertex="1" parent="1">
          <mxGeometry x="80" y="1160" width="710" height="260" as="geometry" />
        </mxCell>
        <mxCell id="GWg-XANY6kdctSkGbIym-233" value="" style="shape=tableRow;horizontal=0;startSize=0;swimlaneHead=0;swimlaneBody=0;strokeColor=inherit;top=0;left=0;bottom=0;right=0;collapsible=0;dropTarget=0;fillColor=none;points=[[0,0.5],[1,0.5]];portConstraint=eastwest;fontSize=16;" vertex="1" parent="GWg-XANY6kdctSkGbIym-232">
          <mxGeometry width="710" height="43" as="geometry" />
        </mxCell>
        <mxCell id="GWg-XANY6kdctSkGbIym-269" value="employee_id" style="shape=partialRectangle;html=1;whiteSpace=wrap;connectable=0;strokeColor=inherit;overflow=hidden;fillColor=none;top=0;left=0;bottom=0;right=0;pointerEvents=1;fontSize=16;" vertex="1" parent="GWg-XANY6kdctSkGbIym-233">
          <mxGeometry width="118" height="43" as="geometry">
            <mxRectangle width="118" height="43" as="alternateBounds" />
          </mxGeometry>
        </mxCell>
        <mxCell id="GWg-XANY6kdctSkGbIym-263" value="name" style="shape=partialRectangle;html=1;whiteSpace=wrap;connectable=0;strokeColor=inherit;overflow=hidden;fillColor=none;top=0;left=0;bottom=0;right=0;pointerEvents=1;fontSize=16;" vertex="1" parent="GWg-XANY6kdctSkGbIym-233">
          <mxGeometry x="118" width="118" height="43" as="geometry">
            <mxRectangle width="118" height="43" as="alternateBounds" />
          </mxGeometry>
        </mxCell>
        <mxCell id="GWg-XANY6kdctSkGbIym-257" value="job_code" style="shape=partialRectangle;html=1;whiteSpace=wrap;connectable=0;strokeColor=inherit;overflow=hidden;fillColor=none;top=0;left=0;bottom=0;right=0;pointerEvents=1;fontSize=16;" vertex="1" parent="GWg-XANY6kdctSkGbIym-233">
          <mxGeometry x="236" width="118" height="43" as="geometry">
            <mxRectangle width="118" height="43" as="alternateBounds" />
          </mxGeometry>
        </mxCell>
        <mxCell id="GWg-XANY6kdctSkGbIym-234" value="job" style="shape=partialRectangle;html=1;whiteSpace=wrap;connectable=0;strokeColor=inherit;overflow=hidden;fillColor=none;top=0;left=0;bottom=0;right=0;pointerEvents=1;fontSize=16;" vertex="1" parent="GWg-XANY6kdctSkGbIym-233">
          <mxGeometry x="354" width="118" height="43" as="geometry">
            <mxRectangle width="118" height="43" as="alternateBounds" />
          </mxGeometry>
        </mxCell>
        <mxCell id="GWg-XANY6kdctSkGbIym-235" value="state_code" style="shape=partialRectangle;html=1;whiteSpace=wrap;connectable=0;strokeColor=inherit;overflow=hidden;fillColor=none;top=0;left=0;bottom=0;right=0;pointerEvents=1;fontSize=16;" vertex="1" parent="GWg-XANY6kdctSkGbIym-233">
          <mxGeometry x="472" width="120" height="43" as="geometry">
            <mxRectangle width="120" height="43" as="alternateBounds" />
          </mxGeometry>
        </mxCell>
        <mxCell id="GWg-XANY6kdctSkGbIym-236" value="home_state" style="shape=partialRectangle;html=1;whiteSpace=wrap;connectable=0;strokeColor=inherit;overflow=hidden;fillColor=none;top=0;left=0;bottom=0;right=0;pointerEvents=1;fontSize=16;" vertex="1" parent="GWg-XANY6kdctSkGbIym-233">
          <mxGeometry x="592" width="118" height="43" as="geometry">
            <mxRectangle width="118" height="43" as="alternateBounds" />
          </mxGeometry>
        </mxCell>
        <mxCell id="GWg-XANY6kdctSkGbIym-237" value="" style="shape=tableRow;horizontal=0;startSize=0;swimlaneHead=0;swimlaneBody=0;strokeColor=inherit;top=0;left=0;bottom=0;right=0;collapsible=0;dropTarget=0;fillColor=none;points=[[0,0.5],[1,0.5]];portConstraint=eastwest;fontSize=16;" vertex="1" parent="GWg-XANY6kdctSkGbIym-232">
          <mxGeometry y="43" width="710" height="44" as="geometry" />
        </mxCell>
        <mxCell id="GWg-XANY6kdctSkGbIym-270" value="E001" style="shape=partialRectangle;html=1;whiteSpace=wrap;connectable=0;strokeColor=inherit;overflow=hidden;fillColor=none;top=0;left=0;bottom=0;right=0;pointerEvents=1;fontSize=16;" vertex="1" parent="GWg-XANY6kdctSkGbIym-237">
          <mxGeometry width="118" height="44" as="geometry">
            <mxRectangle width="118" height="44" as="alternateBounds" />
          </mxGeometry>
        </mxCell>
        <mxCell id="GWg-XANY6kdctSkGbIym-264" value="Alice" style="shape=partialRectangle;html=1;whiteSpace=wrap;connectable=0;strokeColor=inherit;overflow=hidden;fillColor=none;top=0;left=0;bottom=0;right=0;pointerEvents=1;fontSize=16;" vertex="1" parent="GWg-XANY6kdctSkGbIym-237">
          <mxGeometry x="118" width="118" height="44" as="geometry">
            <mxRectangle width="118" height="44" as="alternateBounds" />
          </mxGeometry>
        </mxCell>
        <mxCell id="GWg-XANY6kdctSkGbIym-258" value="J01" style="shape=partialRectangle;html=1;whiteSpace=wrap;connectable=0;strokeColor=inherit;overflow=hidden;fillColor=none;top=0;left=0;bottom=0;right=0;pointerEvents=1;fontSize=16;" vertex="1" parent="GWg-XANY6kdctSkGbIym-237">
          <mxGeometry x="236" width="118" height="44" as="geometry">
            <mxRectangle width="118" height="44" as="alternateBounds" />
          </mxGeometry>
        </mxCell>
        <mxCell id="GWg-XANY6kdctSkGbIym-238" value="Chef" style="shape=partialRectangle;html=1;whiteSpace=wrap;connectable=0;strokeColor=inherit;overflow=hidden;fillColor=none;top=0;left=0;bottom=0;right=0;pointerEvents=1;fontSize=16;" vertex="1" parent="GWg-XANY6kdctSkGbIym-237">
          <mxGeometry x="354" width="118" height="44" as="geometry">
            <mxRectangle width="118" height="44" as="alternateBounds" />
          </mxGeometry>
        </mxCell>
        <mxCell id="GWg-XANY6kdctSkGbIym-239" value="26" style="shape=partialRectangle;html=1;whiteSpace=wrap;connectable=0;strokeColor=inherit;overflow=hidden;fillColor=none;top=0;left=0;bottom=0;right=0;pointerEvents=1;fontSize=16;" vertex="1" parent="GWg-XANY6kdctSkGbIym-237">
          <mxGeometry x="472" width="120" height="44" as="geometry">
            <mxRectangle width="120" height="44" as="alternateBounds" />
          </mxGeometry>
        </mxCell>
        <mxCell id="GWg-XANY6kdctSkGbIym-240" value="Michigan" style="shape=partialRectangle;html=1;whiteSpace=wrap;connectable=0;strokeColor=inherit;overflow=hidden;fillColor=none;top=0;left=0;bottom=0;right=0;pointerEvents=1;fontSize=16;" vertex="1" parent="GWg-XANY6kdctSkGbIym-237">
          <mxGeometry x="592" width="118" height="44" as="geometry">
            <mxRectangle width="118" height="44" as="alternateBounds" />
          </mxGeometry>
        </mxCell>
        <mxCell id="GWg-XANY6kdctSkGbIym-241" value="" style="shape=tableRow;horizontal=0;startSize=0;swimlaneHead=0;swimlaneBody=0;strokeColor=inherit;top=0;left=0;bottom=0;right=0;collapsible=0;dropTarget=0;fillColor=none;points=[[0,0.5],[1,0.5]];portConstraint=eastwest;fontSize=16;" vertex="1" parent="GWg-XANY6kdctSkGbIym-232">
          <mxGeometry y="87" width="710" height="43" as="geometry" />
        </mxCell>
        <mxCell id="GWg-XANY6kdctSkGbIym-271" value="E001" style="shape=partialRectangle;html=1;whiteSpace=wrap;connectable=0;strokeColor=inherit;overflow=hidden;fillColor=none;top=0;left=0;bottom=0;right=0;pointerEvents=1;fontSize=16;" vertex="1" parent="GWg-XANY6kdctSkGbIym-241">
          <mxGeometry width="118" height="43" as="geometry">
            <mxRectangle width="118" height="43" as="alternateBounds" />
          </mxGeometry>
        </mxCell>
        <mxCell id="GWg-XANY6kdctSkGbIym-265" value="Alice" style="shape=partialRectangle;html=1;whiteSpace=wrap;connectable=0;strokeColor=inherit;overflow=hidden;fillColor=none;top=0;left=0;bottom=0;right=0;pointerEvents=1;fontSize=16;" vertex="1" parent="GWg-XANY6kdctSkGbIym-241">
          <mxGeometry x="118" width="118" height="43" as="geometry">
            <mxRectangle width="118" height="43" as="alternateBounds" />
          </mxGeometry>
        </mxCell>
        <mxCell id="GWg-XANY6kdctSkGbIym-259" value="J02" style="shape=partialRectangle;html=1;whiteSpace=wrap;connectable=0;strokeColor=inherit;overflow=hidden;fillColor=none;top=0;left=0;bottom=0;right=0;pointerEvents=1;fontSize=16;" vertex="1" parent="GWg-XANY6kdctSkGbIym-241">
          <mxGeometry x="236" width="118" height="43" as="geometry">
            <mxRectangle width="118" height="43" as="alternateBounds" />
          </mxGeometry>
        </mxCell>
        <mxCell id="GWg-XANY6kdctSkGbIym-242" value="Waiter" style="shape=partialRectangle;html=1;whiteSpace=wrap;connectable=0;strokeColor=inherit;overflow=hidden;fillColor=none;top=0;left=0;bottom=0;right=0;pointerEvents=1;fontSize=16;" vertex="1" parent="GWg-XANY6kdctSkGbIym-241">
          <mxGeometry x="354" width="118" height="43" as="geometry">
            <mxRectangle width="118" height="43" as="alternateBounds" />
          </mxGeometry>
        </mxCell>
        <mxCell id="GWg-XANY6kdctSkGbIym-243" value="26" style="shape=partialRectangle;html=1;whiteSpace=wrap;connectable=0;strokeColor=inherit;overflow=hidden;fillColor=none;top=0;left=0;bottom=0;right=0;pointerEvents=1;fontSize=16;" vertex="1" parent="GWg-XANY6kdctSkGbIym-241">
          <mxGeometry x="472" width="120" height="43" as="geometry">
            <mxRectangle width="120" height="43" as="alternateBounds" />
          </mxGeometry>
        </mxCell>
        <mxCell id="GWg-XANY6kdctSkGbIym-244" value="Michigan" style="shape=partialRectangle;html=1;whiteSpace=wrap;connectable=0;strokeColor=inherit;overflow=hidden;fillColor=none;top=0;left=0;bottom=0;right=0;pointerEvents=1;fontSize=16;" vertex="1" parent="GWg-XANY6kdctSkGbIym-241">
          <mxGeometry x="592" width="118" height="43" as="geometry">
            <mxRectangle width="118" height="43" as="alternateBounds" />
          </mxGeometry>
        </mxCell>
        <mxCell id="GWg-XANY6kdctSkGbIym-245" value="" style="shape=tableRow;horizontal=0;startSize=0;swimlaneHead=0;swimlaneBody=0;strokeColor=inherit;top=0;left=0;bottom=0;right=0;collapsible=0;dropTarget=0;fillColor=none;points=[[0,0.5],[1,0.5]];portConstraint=eastwest;fontSize=16;" vertex="1" parent="GWg-XANY6kdctSkGbIym-232">
          <mxGeometry y="130" width="710" height="43" as="geometry" />
        </mxCell>
        <mxCell id="GWg-XANY6kdctSkGbIym-272" value="E002" style="shape=partialRectangle;html=1;whiteSpace=wrap;connectable=0;strokeColor=inherit;overflow=hidden;fillColor=none;top=0;left=0;bottom=0;right=0;pointerEvents=1;fontSize=16;" vertex="1" parent="GWg-XANY6kdctSkGbIym-245">
          <mxGeometry width="118" height="43" as="geometry">
            <mxRectangle width="118" height="43" as="alternateBounds" />
          </mxGeometry>
        </mxCell>
        <mxCell id="GWg-XANY6kdctSkGbIym-266" value="Bob" style="shape=partialRectangle;html=1;whiteSpace=wrap;connectable=0;strokeColor=inherit;overflow=hidden;fillColor=none;top=0;left=0;bottom=0;right=0;pointerEvents=1;fontSize=16;" vertex="1" parent="GWg-XANY6kdctSkGbIym-245">
          <mxGeometry x="118" width="118" height="43" as="geometry">
            <mxRectangle width="118" height="43" as="alternateBounds" />
          </mxGeometry>
        </mxCell>
        <mxCell id="GWg-XANY6kdctSkGbIym-260" value="J02" style="shape=partialRectangle;html=1;whiteSpace=wrap;connectable=0;strokeColor=inherit;overflow=hidden;fillColor=none;top=0;left=0;bottom=0;right=0;pointerEvents=1;fontSize=16;" vertex="1" parent="GWg-XANY6kdctSkGbIym-245">
          <mxGeometry x="236" width="118" height="43" as="geometry">
            <mxRectangle width="118" height="43" as="alternateBounds" />
          </mxGeometry>
        </mxCell>
        <mxCell id="GWg-XANY6kdctSkGbIym-246" value="Waiter" style="shape=partialRectangle;html=1;whiteSpace=wrap;connectable=0;strokeColor=inherit;overflow=hidden;fillColor=none;top=0;left=0;bottom=0;right=0;pointerEvents=1;fontSize=16;" vertex="1" parent="GWg-XANY6kdctSkGbIym-245">
          <mxGeometry x="354" width="118" height="43" as="geometry">
            <mxRectangle width="118" height="43" as="alternateBounds" />
          </mxGeometry>
        </mxCell>
        <mxCell id="GWg-XANY6kdctSkGbIym-247" value="56" style="shape=partialRectangle;html=1;whiteSpace=wrap;connectable=0;strokeColor=inherit;overflow=hidden;fillColor=none;top=0;left=0;bottom=0;right=0;pointerEvents=1;fontSize=16;" vertex="1" parent="GWg-XANY6kdctSkGbIym-245">
          <mxGeometry x="472" width="120" height="43" as="geometry">
            <mxRectangle width="120" height="43" as="alternateBounds" />
          </mxGeometry>
        </mxCell>
        <mxCell id="GWg-XANY6kdctSkGbIym-248" value="Wyoming" style="shape=partialRectangle;html=1;whiteSpace=wrap;connectable=0;strokeColor=inherit;overflow=hidden;fillColor=none;top=0;left=0;bottom=0;right=0;pointerEvents=1;fontSize=16;" vertex="1" parent="GWg-XANY6kdctSkGbIym-245">
          <mxGeometry x="592" width="118" height="43" as="geometry">
            <mxRectangle width="118" height="43" as="alternateBounds" />
          </mxGeometry>
        </mxCell>
        <mxCell id="GWg-XANY6kdctSkGbIym-249" value="" style="shape=tableRow;horizontal=0;startSize=0;swimlaneHead=0;swimlaneBody=0;strokeColor=inherit;top=0;left=0;bottom=0;right=0;collapsible=0;dropTarget=0;fillColor=none;points=[[0,0.5],[1,0.5]];portConstraint=eastwest;fontSize=16;" vertex="1" parent="GWg-XANY6kdctSkGbIym-232">
          <mxGeometry y="173" width="710" height="44" as="geometry" />
        </mxCell>
        <mxCell id="GWg-XANY6kdctSkGbIym-273" value="E002" style="shape=partialRectangle;html=1;whiteSpace=wrap;connectable=0;strokeColor=inherit;overflow=hidden;fillColor=none;top=0;left=0;bottom=0;right=0;pointerEvents=1;fontSize=16;" vertex="1" parent="GWg-XANY6kdctSkGbIym-249">
          <mxGeometry width="118" height="44" as="geometry">
            <mxRectangle width="118" height="44" as="alternateBounds" />
          </mxGeometry>
        </mxCell>
        <mxCell id="GWg-XANY6kdctSkGbIym-267" value="Bob" style="shape=partialRectangle;html=1;whiteSpace=wrap;connectable=0;strokeColor=inherit;overflow=hidden;fillColor=none;top=0;left=0;bottom=0;right=0;pointerEvents=1;fontSize=16;" vertex="1" parent="GWg-XANY6kdctSkGbIym-249">
          <mxGeometry x="118" width="118" height="44" as="geometry">
            <mxRectangle width="118" height="44" as="alternateBounds" />
          </mxGeometry>
        </mxCell>
        <mxCell id="GWg-XANY6kdctSkGbIym-261" value="J03" style="shape=partialRectangle;html=1;whiteSpace=wrap;connectable=0;strokeColor=inherit;overflow=hidden;fillColor=none;top=0;left=0;bottom=0;right=0;pointerEvents=1;fontSize=16;" vertex="1" parent="GWg-XANY6kdctSkGbIym-249">
          <mxGeometry x="236" width="118" height="44" as="geometry">
            <mxRectangle width="118" height="44" as="alternateBounds" />
          </mxGeometry>
        </mxCell>
        <mxCell id="GWg-XANY6kdctSkGbIym-250" value="Bartender" style="shape=partialRectangle;html=1;whiteSpace=wrap;connectable=0;strokeColor=inherit;overflow=hidden;fillColor=none;top=0;left=0;bottom=0;right=0;pointerEvents=1;fontSize=16;" vertex="1" parent="GWg-XANY6kdctSkGbIym-249">
          <mxGeometry x="354" width="118" height="44" as="geometry">
            <mxRectangle width="118" height="44" as="alternateBounds" />
          </mxGeometry>
        </mxCell>
        <mxCell id="GWg-XANY6kdctSkGbIym-251" value="56" style="shape=partialRectangle;html=1;whiteSpace=wrap;connectable=0;strokeColor=inherit;overflow=hidden;fillColor=none;top=0;left=0;bottom=0;right=0;pointerEvents=1;fontSize=16;" vertex="1" parent="GWg-XANY6kdctSkGbIym-249">
          <mxGeometry x="472" width="120" height="44" as="geometry">
            <mxRectangle width="120" height="44" as="alternateBounds" />
          </mxGeometry>
        </mxCell>
        <mxCell id="GWg-XANY6kdctSkGbIym-252" value="Wyoming" style="shape=partialRectangle;html=1;whiteSpace=wrap;connectable=0;strokeColor=inherit;overflow=hidden;fillColor=none;top=0;left=0;bottom=0;right=0;pointerEvents=1;fontSize=16;" vertex="1" parent="GWg-XANY6kdctSkGbIym-249">
          <mxGeometry x="592" width="118" height="44" as="geometry">
            <mxRectangle width="118" height="44" as="alternateBounds" />
          </mxGeometry>
        </mxCell>
        <mxCell id="GWg-XANY6kdctSkGbIym-253" value="" style="shape=tableRow;horizontal=0;startSize=0;swimlaneHead=0;swimlaneBody=0;strokeColor=inherit;top=0;left=0;bottom=0;right=0;collapsible=0;dropTarget=0;fillColor=none;points=[[0,0.5],[1,0.5]];portConstraint=eastwest;fontSize=16;" vertex="1" parent="GWg-XANY6kdctSkGbIym-232">
          <mxGeometry y="217" width="710" height="43" as="geometry" />
        </mxCell>
        <mxCell id="GWg-XANY6kdctSkGbIym-274" value="E003" style="shape=partialRectangle;html=1;whiteSpace=wrap;connectable=0;strokeColor=inherit;overflow=hidden;fillColor=none;top=0;left=0;bottom=0;right=0;pointerEvents=1;fontSize=16;" vertex="1" parent="GWg-XANY6kdctSkGbIym-253">
          <mxGeometry width="118" height="43" as="geometry">
            <mxRectangle width="118" height="43" as="alternateBounds" />
          </mxGeometry>
        </mxCell>
        <mxCell id="GWg-XANY6kdctSkGbIym-268" value="Alice" style="shape=partialRectangle;html=1;whiteSpace=wrap;connectable=0;strokeColor=inherit;overflow=hidden;fillColor=none;top=0;left=0;bottom=0;right=0;pointerEvents=1;fontSize=16;" vertex="1" parent="GWg-XANY6kdctSkGbIym-253">
          <mxGeometry x="118" width="118" height="43" as="geometry">
            <mxRectangle width="118" height="43" as="alternateBounds" />
          </mxGeometry>
        </mxCell>
        <mxCell id="GWg-XANY6kdctSkGbIym-262" value="J01" style="shape=partialRectangle;html=1;whiteSpace=wrap;connectable=0;strokeColor=inherit;overflow=hidden;fillColor=none;top=0;left=0;bottom=0;right=0;pointerEvents=1;fontSize=16;" vertex="1" parent="GWg-XANY6kdctSkGbIym-253">
          <mxGeometry x="236" width="118" height="43" as="geometry">
            <mxRectangle width="118" height="43" as="alternateBounds" />
          </mxGeometry>
        </mxCell>
        <mxCell id="GWg-XANY6kdctSkGbIym-254" value="Chef" style="shape=partialRectangle;html=1;whiteSpace=wrap;connectable=0;strokeColor=inherit;overflow=hidden;fillColor=none;top=0;left=0;bottom=0;right=0;pointerEvents=1;fontSize=16;" vertex="1" parent="GWg-XANY6kdctSkGbIym-253">
          <mxGeometry x="354" width="118" height="43" as="geometry">
            <mxRectangle width="118" height="43" as="alternateBounds" />
          </mxGeometry>
        </mxCell>
        <mxCell id="GWg-XANY6kdctSkGbIym-255" value="56" style="shape=partialRectangle;html=1;whiteSpace=wrap;connectable=0;strokeColor=inherit;overflow=hidden;fillColor=none;top=0;left=0;bottom=0;right=0;pointerEvents=1;fontSize=16;" vertex="1" parent="GWg-XANY6kdctSkGbIym-253">
          <mxGeometry x="472" width="120" height="43" as="geometry">
            <mxRectangle width="120" height="43" as="alternateBounds" />
          </mxGeometry>
        </mxCell>
        <mxCell id="GWg-XANY6kdctSkGbIym-256" value="Wymoing" style="shape=partialRectangle;html=1;whiteSpace=wrap;connectable=0;strokeColor=inherit;overflow=hidden;fillColor=none;top=0;left=0;bottom=0;right=0;pointerEvents=1;fontSize=16;" vertex="1" parent="GWg-XANY6kdctSkGbIym-253">
          <mxGeometry x="592" width="118" height="43" as="geometry">
            <mxRectangle width="118" height="43" as="alternateBounds" />
          </mxGeometry>
        </mxCell>
        <mxCell id="GWg-XANY6kdctSkGbIym-318" value="&lt;font style=&quot;font-size: 22px;&quot;&gt;Unnormalized table:&lt;/font&gt;" style="text;html=1;align=left;verticalAlign=middle;resizable=0;points=[];autosize=1;strokeColor=none;fillColor=none;" vertex="1" parent="1">
          <mxGeometry x="80" y="1080" width="220" height="40" as="geometry" />
        </mxCell>
        <mxCell id="GWg-XANY6kdctSkGbIym-319" value="" style="shape=table;startSize=0;container=1;collapsible=0;childLayout=tableLayout;fontSize=16;" vertex="1" parent="1">
          <mxGeometry x="80" y="1760" width="710" height="260" as="geometry" />
        </mxCell>
        <mxCell id="GWg-XANY6kdctSkGbIym-320" value="" style="shape=tableRow;horizontal=0;startSize=0;swimlaneHead=0;swimlaneBody=0;strokeColor=inherit;top=0;left=0;bottom=0;right=0;collapsible=0;dropTarget=0;fillColor=none;points=[[0,0.5],[1,0.5]];portConstraint=eastwest;fontSize=16;" vertex="1" parent="GWg-XANY6kdctSkGbIym-319">
          <mxGeometry width="710" height="43" as="geometry" />
        </mxCell>
        <mxCell id="GWg-XANY6kdctSkGbIym-321" value="employee_id" style="shape=partialRectangle;html=1;whiteSpace=wrap;connectable=0;strokeColor=inherit;overflow=hidden;fillColor=none;top=0;left=0;bottom=0;right=0;pointerEvents=1;fontSize=16;" vertex="1" parent="GWg-XANY6kdctSkGbIym-320">
          <mxGeometry width="118" height="43" as="geometry">
            <mxRectangle width="118" height="43" as="alternateBounds" />
          </mxGeometry>
        </mxCell>
        <mxCell id="GWg-XANY6kdctSkGbIym-322" value="name" style="shape=partialRectangle;html=1;whiteSpace=wrap;connectable=0;strokeColor=inherit;overflow=hidden;fillColor=none;top=0;left=0;bottom=0;right=0;pointerEvents=1;fontSize=16;" vertex="1" parent="GWg-XANY6kdctSkGbIym-320">
          <mxGeometry x="118" width="118" height="43" as="geometry">
            <mxRectangle width="118" height="43" as="alternateBounds" />
          </mxGeometry>
        </mxCell>
        <mxCell id="GWg-XANY6kdctSkGbIym-323" value="stat_code" style="shape=partialRectangle;html=1;whiteSpace=wrap;connectable=0;strokeColor=inherit;overflow=hidden;fillColor=none;top=0;left=0;bottom=0;right=0;pointerEvents=1;fontSize=16;" vertex="1" parent="GWg-XANY6kdctSkGbIym-320">
          <mxGeometry x="236" width="118" height="43" as="geometry">
            <mxRectangle width="118" height="43" as="alternateBounds" />
          </mxGeometry>
        </mxCell>
        <mxCell id="GWg-XANY6kdctSkGbIym-324" value="home_state" style="shape=partialRectangle;html=1;whiteSpace=wrap;connectable=0;strokeColor=inherit;overflow=hidden;fillColor=none;top=0;left=0;bottom=0;right=0;pointerEvents=1;fontSize=16;" vertex="1" parent="GWg-XANY6kdctSkGbIym-320">
          <mxGeometry x="354" width="118" height="43" as="geometry">
            <mxRectangle width="118" height="43" as="alternateBounds" />
          </mxGeometry>
        </mxCell>
        <mxCell id="GWg-XANY6kdctSkGbIym-325" value="job_code" style="shape=partialRectangle;html=1;whiteSpace=wrap;connectable=0;strokeColor=inherit;overflow=hidden;fillColor=none;top=0;left=0;bottom=0;right=0;pointerEvents=1;fontSize=16;" vertex="1" parent="GWg-XANY6kdctSkGbIym-320">
          <mxGeometry x="472" width="120" height="43" as="geometry">
            <mxRectangle width="120" height="43" as="alternateBounds" />
          </mxGeometry>
        </mxCell>
        <mxCell id="GWg-XANY6kdctSkGbIym-326" value="job" style="shape=partialRectangle;html=1;whiteSpace=wrap;connectable=0;strokeColor=inherit;overflow=hidden;fillColor=none;top=0;left=0;bottom=0;right=0;pointerEvents=1;fontSize=16;" vertex="1" parent="GWg-XANY6kdctSkGbIym-320">
          <mxGeometry x="592" width="118" height="43" as="geometry">
            <mxRectangle width="118" height="43" as="alternateBounds" />
          </mxGeometry>
        </mxCell>
        <mxCell id="GWg-XANY6kdctSkGbIym-327" value="" style="shape=tableRow;horizontal=0;startSize=0;swimlaneHead=0;swimlaneBody=0;strokeColor=inherit;top=0;left=0;bottom=0;right=0;collapsible=0;dropTarget=0;fillColor=none;points=[[0,0.5],[1,0.5]];portConstraint=eastwest;fontSize=16;" vertex="1" parent="GWg-XANY6kdctSkGbIym-319">
          <mxGeometry y="43" width="710" height="44" as="geometry" />
        </mxCell>
        <mxCell id="GWg-XANY6kdctSkGbIym-328" value="E001" style="shape=partialRectangle;html=1;whiteSpace=wrap;connectable=0;strokeColor=inherit;overflow=hidden;fillColor=none;top=0;left=0;bottom=0;right=0;pointerEvents=1;fontSize=16;" vertex="1" parent="GWg-XANY6kdctSkGbIym-327">
          <mxGeometry width="118" height="44" as="geometry">
            <mxRectangle width="118" height="44" as="alternateBounds" />
          </mxGeometry>
        </mxCell>
        <mxCell id="GWg-XANY6kdctSkGbIym-329" value="Alice" style="shape=partialRectangle;html=1;whiteSpace=wrap;connectable=0;strokeColor=inherit;overflow=hidden;fillColor=none;top=0;left=0;bottom=0;right=0;pointerEvents=1;fontSize=16;" vertex="1" parent="GWg-XANY6kdctSkGbIym-327">
          <mxGeometry x="118" width="118" height="44" as="geometry">
            <mxRectangle width="118" height="44" as="alternateBounds" />
          </mxGeometry>
        </mxCell>
        <mxCell id="GWg-XANY6kdctSkGbIym-330" value="26" style="shape=partialRectangle;html=1;whiteSpace=wrap;connectable=0;strokeColor=inherit;overflow=hidden;fillColor=none;top=0;left=0;bottom=0;right=0;pointerEvents=1;fontSize=16;" vertex="1" parent="GWg-XANY6kdctSkGbIym-327">
          <mxGeometry x="236" width="118" height="44" as="geometry">
            <mxRectangle width="118" height="44" as="alternateBounds" />
          </mxGeometry>
        </mxCell>
        <mxCell id="GWg-XANY6kdctSkGbIym-331" value="Michigan" style="shape=partialRectangle;html=1;whiteSpace=wrap;connectable=0;strokeColor=inherit;overflow=hidden;fillColor=none;top=0;left=0;bottom=0;right=0;pointerEvents=1;fontSize=16;" vertex="1" parent="GWg-XANY6kdctSkGbIym-327">
          <mxGeometry x="354" width="118" height="44" as="geometry">
            <mxRectangle width="118" height="44" as="alternateBounds" />
          </mxGeometry>
        </mxCell>
        <mxCell id="GWg-XANY6kdctSkGbIym-332" value="J01" style="shape=partialRectangle;html=1;whiteSpace=wrap;connectable=0;strokeColor=inherit;overflow=hidden;fillColor=none;top=0;left=0;bottom=0;right=0;pointerEvents=1;fontSize=16;" vertex="1" parent="GWg-XANY6kdctSkGbIym-327">
          <mxGeometry x="472" width="120" height="44" as="geometry">
            <mxRectangle width="120" height="44" as="alternateBounds" />
          </mxGeometry>
        </mxCell>
        <mxCell id="GWg-XANY6kdctSkGbIym-333" value="Chef" style="shape=partialRectangle;html=1;whiteSpace=wrap;connectable=0;strokeColor=inherit;overflow=hidden;fillColor=none;top=0;left=0;bottom=0;right=0;pointerEvents=1;fontSize=16;" vertex="1" parent="GWg-XANY6kdctSkGbIym-327">
          <mxGeometry x="592" width="118" height="44" as="geometry">
            <mxRectangle width="118" height="44" as="alternateBounds" />
          </mxGeometry>
        </mxCell>
        <mxCell id="GWg-XANY6kdctSkGbIym-334" value="" style="shape=tableRow;horizontal=0;startSize=0;swimlaneHead=0;swimlaneBody=0;strokeColor=inherit;top=0;left=0;bottom=0;right=0;collapsible=0;dropTarget=0;fillColor=none;points=[[0,0.5],[1,0.5]];portConstraint=eastwest;fontSize=16;" vertex="1" parent="GWg-XANY6kdctSkGbIym-319">
          <mxGeometry y="87" width="710" height="43" as="geometry" />
        </mxCell>
        <mxCell id="GWg-XANY6kdctSkGbIym-335" value="E001" style="shape=partialRectangle;html=1;whiteSpace=wrap;connectable=0;strokeColor=inherit;overflow=hidden;fillColor=none;top=0;left=0;bottom=0;right=0;pointerEvents=1;fontSize=16;" vertex="1" parent="GWg-XANY6kdctSkGbIym-334">
          <mxGeometry width="118" height="43" as="geometry">
            <mxRectangle width="118" height="43" as="alternateBounds" />
          </mxGeometry>
        </mxCell>
        <mxCell id="GWg-XANY6kdctSkGbIym-336" value="Alice" style="shape=partialRectangle;html=1;whiteSpace=wrap;connectable=0;strokeColor=inherit;overflow=hidden;fillColor=none;top=0;left=0;bottom=0;right=0;pointerEvents=1;fontSize=16;" vertex="1" parent="GWg-XANY6kdctSkGbIym-334">
          <mxGeometry x="118" width="118" height="43" as="geometry">
            <mxRectangle width="118" height="43" as="alternateBounds" />
          </mxGeometry>
        </mxCell>
        <mxCell id="GWg-XANY6kdctSkGbIym-337" value="26" style="shape=partialRectangle;html=1;whiteSpace=wrap;connectable=0;strokeColor=inherit;overflow=hidden;fillColor=none;top=0;left=0;bottom=0;right=0;pointerEvents=1;fontSize=16;" vertex="1" parent="GWg-XANY6kdctSkGbIym-334">
          <mxGeometry x="236" width="118" height="43" as="geometry">
            <mxRectangle width="118" height="43" as="alternateBounds" />
          </mxGeometry>
        </mxCell>
        <mxCell id="GWg-XANY6kdctSkGbIym-338" value="Michigan" style="shape=partialRectangle;html=1;whiteSpace=wrap;connectable=0;strokeColor=inherit;overflow=hidden;fillColor=none;top=0;left=0;bottom=0;right=0;pointerEvents=1;fontSize=16;" vertex="1" parent="GWg-XANY6kdctSkGbIym-334">
          <mxGeometry x="354" width="118" height="43" as="geometry">
            <mxRectangle width="118" height="43" as="alternateBounds" />
          </mxGeometry>
        </mxCell>
        <mxCell id="GWg-XANY6kdctSkGbIym-339" value="J02" style="shape=partialRectangle;html=1;whiteSpace=wrap;connectable=0;strokeColor=inherit;overflow=hidden;fillColor=none;top=0;left=0;bottom=0;right=0;pointerEvents=1;fontSize=16;" vertex="1" parent="GWg-XANY6kdctSkGbIym-334">
          <mxGeometry x="472" width="120" height="43" as="geometry">
            <mxRectangle width="120" height="43" as="alternateBounds" />
          </mxGeometry>
        </mxCell>
        <mxCell id="GWg-XANY6kdctSkGbIym-340" value="Waiter" style="shape=partialRectangle;html=1;whiteSpace=wrap;connectable=0;strokeColor=inherit;overflow=hidden;fillColor=none;top=0;left=0;bottom=0;right=0;pointerEvents=1;fontSize=16;" vertex="1" parent="GWg-XANY6kdctSkGbIym-334">
          <mxGeometry x="592" width="118" height="43" as="geometry">
            <mxRectangle width="118" height="43" as="alternateBounds" />
          </mxGeometry>
        </mxCell>
        <mxCell id="GWg-XANY6kdctSkGbIym-341" value="" style="shape=tableRow;horizontal=0;startSize=0;swimlaneHead=0;swimlaneBody=0;strokeColor=inherit;top=0;left=0;bottom=0;right=0;collapsible=0;dropTarget=0;fillColor=none;points=[[0,0.5],[1,0.5]];portConstraint=eastwest;fontSize=16;" vertex="1" parent="GWg-XANY6kdctSkGbIym-319">
          <mxGeometry y="130" width="710" height="43" as="geometry" />
        </mxCell>
        <mxCell id="GWg-XANY6kdctSkGbIym-342" value="E002" style="shape=partialRectangle;html=1;whiteSpace=wrap;connectable=0;strokeColor=inherit;overflow=hidden;fillColor=none;top=0;left=0;bottom=0;right=0;pointerEvents=1;fontSize=16;" vertex="1" parent="GWg-XANY6kdctSkGbIym-341">
          <mxGeometry width="118" height="43" as="geometry">
            <mxRectangle width="118" height="43" as="alternateBounds" />
          </mxGeometry>
        </mxCell>
        <mxCell id="GWg-XANY6kdctSkGbIym-343" value="Bob" style="shape=partialRectangle;html=1;whiteSpace=wrap;connectable=0;strokeColor=inherit;overflow=hidden;fillColor=none;top=0;left=0;bottom=0;right=0;pointerEvents=1;fontSize=16;" vertex="1" parent="GWg-XANY6kdctSkGbIym-341">
          <mxGeometry x="118" width="118" height="43" as="geometry">
            <mxRectangle width="118" height="43" as="alternateBounds" />
          </mxGeometry>
        </mxCell>
        <mxCell id="GWg-XANY6kdctSkGbIym-344" value="56" style="shape=partialRectangle;html=1;whiteSpace=wrap;connectable=0;strokeColor=inherit;overflow=hidden;fillColor=none;top=0;left=0;bottom=0;right=0;pointerEvents=1;fontSize=16;" vertex="1" parent="GWg-XANY6kdctSkGbIym-341">
          <mxGeometry x="236" width="118" height="43" as="geometry">
            <mxRectangle width="118" height="43" as="alternateBounds" />
          </mxGeometry>
        </mxCell>
        <mxCell id="GWg-XANY6kdctSkGbIym-345" value="Wyoming" style="shape=partialRectangle;html=1;whiteSpace=wrap;connectable=0;strokeColor=inherit;overflow=hidden;fillColor=none;top=0;left=0;bottom=0;right=0;pointerEvents=1;fontSize=16;" vertex="1" parent="GWg-XANY6kdctSkGbIym-341">
          <mxGeometry x="354" width="118" height="43" as="geometry">
            <mxRectangle width="118" height="43" as="alternateBounds" />
          </mxGeometry>
        </mxCell>
        <mxCell id="GWg-XANY6kdctSkGbIym-346" value="J02" style="shape=partialRectangle;html=1;whiteSpace=wrap;connectable=0;strokeColor=inherit;overflow=hidden;fillColor=none;top=0;left=0;bottom=0;right=0;pointerEvents=1;fontSize=16;" vertex="1" parent="GWg-XANY6kdctSkGbIym-341">
          <mxGeometry x="472" width="120" height="43" as="geometry">
            <mxRectangle width="120" height="43" as="alternateBounds" />
          </mxGeometry>
        </mxCell>
        <mxCell id="GWg-XANY6kdctSkGbIym-347" value="Waiter" style="shape=partialRectangle;html=1;whiteSpace=wrap;connectable=0;strokeColor=inherit;overflow=hidden;fillColor=none;top=0;left=0;bottom=0;right=0;pointerEvents=1;fontSize=16;" vertex="1" parent="GWg-XANY6kdctSkGbIym-341">
          <mxGeometry x="592" width="118" height="43" as="geometry">
            <mxRectangle width="118" height="43" as="alternateBounds" />
          </mxGeometry>
        </mxCell>
        <mxCell id="GWg-XANY6kdctSkGbIym-348" value="" style="shape=tableRow;horizontal=0;startSize=0;swimlaneHead=0;swimlaneBody=0;strokeColor=inherit;top=0;left=0;bottom=0;right=0;collapsible=0;dropTarget=0;fillColor=none;points=[[0,0.5],[1,0.5]];portConstraint=eastwest;fontSize=16;" vertex="1" parent="GWg-XANY6kdctSkGbIym-319">
          <mxGeometry y="173" width="710" height="44" as="geometry" />
        </mxCell>
        <mxCell id="GWg-XANY6kdctSkGbIym-349" value="E002" style="shape=partialRectangle;html=1;whiteSpace=wrap;connectable=0;strokeColor=inherit;overflow=hidden;fillColor=none;top=0;left=0;bottom=0;right=0;pointerEvents=1;fontSize=16;" vertex="1" parent="GWg-XANY6kdctSkGbIym-348">
          <mxGeometry width="118" height="44" as="geometry">
            <mxRectangle width="118" height="44" as="alternateBounds" />
          </mxGeometry>
        </mxCell>
        <mxCell id="GWg-XANY6kdctSkGbIym-350" value="Bob" style="shape=partialRectangle;html=1;whiteSpace=wrap;connectable=0;strokeColor=inherit;overflow=hidden;fillColor=none;top=0;left=0;bottom=0;right=0;pointerEvents=1;fontSize=16;" vertex="1" parent="GWg-XANY6kdctSkGbIym-348">
          <mxGeometry x="118" width="118" height="44" as="geometry">
            <mxRectangle width="118" height="44" as="alternateBounds" />
          </mxGeometry>
        </mxCell>
        <mxCell id="GWg-XANY6kdctSkGbIym-351" value="56" style="shape=partialRectangle;html=1;whiteSpace=wrap;connectable=0;strokeColor=inherit;overflow=hidden;fillColor=none;top=0;left=0;bottom=0;right=0;pointerEvents=1;fontSize=16;" vertex="1" parent="GWg-XANY6kdctSkGbIym-348">
          <mxGeometry x="236" width="118" height="44" as="geometry">
            <mxRectangle width="118" height="44" as="alternateBounds" />
          </mxGeometry>
        </mxCell>
        <mxCell id="GWg-XANY6kdctSkGbIym-352" value="Wyoming" style="shape=partialRectangle;html=1;whiteSpace=wrap;connectable=0;strokeColor=inherit;overflow=hidden;fillColor=none;top=0;left=0;bottom=0;right=0;pointerEvents=1;fontSize=16;" vertex="1" parent="GWg-XANY6kdctSkGbIym-348">
          <mxGeometry x="354" width="118" height="44" as="geometry">
            <mxRectangle width="118" height="44" as="alternateBounds" />
          </mxGeometry>
        </mxCell>
        <mxCell id="GWg-XANY6kdctSkGbIym-353" value="J03" style="shape=partialRectangle;html=1;whiteSpace=wrap;connectable=0;strokeColor=inherit;overflow=hidden;fillColor=none;top=0;left=0;bottom=0;right=0;pointerEvents=1;fontSize=16;" vertex="1" parent="GWg-XANY6kdctSkGbIym-348">
          <mxGeometry x="472" width="120" height="44" as="geometry">
            <mxRectangle width="120" height="44" as="alternateBounds" />
          </mxGeometry>
        </mxCell>
        <mxCell id="GWg-XANY6kdctSkGbIym-354" value="Bartender" style="shape=partialRectangle;html=1;whiteSpace=wrap;connectable=0;strokeColor=inherit;overflow=hidden;fillColor=none;top=0;left=0;bottom=0;right=0;pointerEvents=1;fontSize=16;" vertex="1" parent="GWg-XANY6kdctSkGbIym-348">
          <mxGeometry x="592" width="118" height="44" as="geometry">
            <mxRectangle width="118" height="44" as="alternateBounds" />
          </mxGeometry>
        </mxCell>
        <mxCell id="GWg-XANY6kdctSkGbIym-355" value="" style="shape=tableRow;horizontal=0;startSize=0;swimlaneHead=0;swimlaneBody=0;strokeColor=inherit;top=0;left=0;bottom=0;right=0;collapsible=0;dropTarget=0;fillColor=none;points=[[0,0.5],[1,0.5]];portConstraint=eastwest;fontSize=16;" vertex="1" parent="GWg-XANY6kdctSkGbIym-319">
          <mxGeometry y="217" width="710" height="43" as="geometry" />
        </mxCell>
        <mxCell id="GWg-XANY6kdctSkGbIym-356" value="E003" style="shape=partialRectangle;html=1;whiteSpace=wrap;connectable=0;strokeColor=inherit;overflow=hidden;fillColor=none;top=0;left=0;bottom=0;right=0;pointerEvents=1;fontSize=16;" vertex="1" parent="GWg-XANY6kdctSkGbIym-355">
          <mxGeometry width="118" height="43" as="geometry">
            <mxRectangle width="118" height="43" as="alternateBounds" />
          </mxGeometry>
        </mxCell>
        <mxCell id="GWg-XANY6kdctSkGbIym-357" value="Alice" style="shape=partialRectangle;html=1;whiteSpace=wrap;connectable=0;strokeColor=inherit;overflow=hidden;fillColor=none;top=0;left=0;bottom=0;right=0;pointerEvents=1;fontSize=16;" vertex="1" parent="GWg-XANY6kdctSkGbIym-355">
          <mxGeometry x="118" width="118" height="43" as="geometry">
            <mxRectangle width="118" height="43" as="alternateBounds" />
          </mxGeometry>
        </mxCell>
        <mxCell id="GWg-XANY6kdctSkGbIym-358" value="56" style="shape=partialRectangle;html=1;whiteSpace=wrap;connectable=0;strokeColor=inherit;overflow=hidden;fillColor=none;top=0;left=0;bottom=0;right=0;pointerEvents=1;fontSize=16;" vertex="1" parent="GWg-XANY6kdctSkGbIym-355">
          <mxGeometry x="236" width="118" height="43" as="geometry">
            <mxRectangle width="118" height="43" as="alternateBounds" />
          </mxGeometry>
        </mxCell>
        <mxCell id="GWg-XANY6kdctSkGbIym-359" value="Wyoming" style="shape=partialRectangle;html=1;whiteSpace=wrap;connectable=0;strokeColor=inherit;overflow=hidden;fillColor=none;top=0;left=0;bottom=0;right=0;pointerEvents=1;fontSize=16;" vertex="1" parent="GWg-XANY6kdctSkGbIym-355">
          <mxGeometry x="354" width="118" height="43" as="geometry">
            <mxRectangle width="118" height="43" as="alternateBounds" />
          </mxGeometry>
        </mxCell>
        <mxCell id="GWg-XANY6kdctSkGbIym-360" value="J01" style="shape=partialRectangle;html=1;whiteSpace=wrap;connectable=0;strokeColor=inherit;overflow=hidden;fillColor=none;top=0;left=0;bottom=0;right=0;pointerEvents=1;fontSize=16;" vertex="1" parent="GWg-XANY6kdctSkGbIym-355">
          <mxGeometry x="472" width="120" height="43" as="geometry">
            <mxRectangle width="120" height="43" as="alternateBounds" />
          </mxGeometry>
        </mxCell>
        <mxCell id="GWg-XANY6kdctSkGbIym-361" value="Chef" style="shape=partialRectangle;html=1;whiteSpace=wrap;connectable=0;strokeColor=inherit;overflow=hidden;fillColor=none;top=0;left=0;bottom=0;right=0;pointerEvents=1;fontSize=16;" vertex="1" parent="GWg-XANY6kdctSkGbIym-355">
          <mxGeometry x="592" width="118" height="43" as="geometry">
            <mxRectangle width="118" height="43" as="alternateBounds" />
          </mxGeometry>
        </mxCell>
        <mxCell id="GWg-XANY6kdctSkGbIym-392" value="&lt;font style=&quot;font-size: 22px;&quot;&gt;1) Convert to First Normal Form (1NF)&lt;/font&gt;" style="text;html=1;align=left;verticalAlign=middle;resizable=0;points=[];autosize=1;strokeColor=none;fillColor=none;" vertex="1" parent="1">
          <mxGeometry x="80" y="1640" width="400" height="40" as="geometry" />
        </mxCell>
        <mxCell id="GWg-XANY6kdctSkGbIym-393" value="&lt;h3 data-start=&quot;1726&quot; data-end=&quot;1779&quot;&gt;&lt;span style=&quot;font-weight: normal;&quot; data-start=&quot;1730&quot; data-end=&quot;1777&quot;&gt;&lt;font style=&quot;font-size: 22px;&quot;&gt;2) Convert to Second Normal Form (2NF)&lt;/font&gt;&lt;/span&gt;&lt;/h3&gt;&lt;br&gt;&lt;p data-start=&quot;1780&quot; data-end=&quot;1882&quot;&gt;&lt;/p&gt;" style="text;whiteSpace=wrap;html=1;" vertex="1" parent="1">
          <mxGeometry x="80" y="2090" width="560" height="60" as="geometry" />
        </mxCell>
        <mxCell id="GWg-XANY6kdctSkGbIym-394" value="" style="shape=table;startSize=0;container=1;collapsible=0;childLayout=tableLayout;fontSize=16;" vertex="1" parent="1">
          <mxGeometry x="80" y="2300" width="320" height="160" as="geometry" />
        </mxCell>
        <mxCell id="GWg-XANY6kdctSkGbIym-395" value="" style="shape=tableRow;horizontal=0;startSize=0;swimlaneHead=0;swimlaneBody=0;strokeColor=inherit;top=0;left=0;bottom=0;right=0;collapsible=0;dropTarget=0;fillColor=none;points=[[0,0.5],[1,0.5]];portConstraint=eastwest;fontSize=16;" vertex="1" parent="GWg-XANY6kdctSkGbIym-394">
          <mxGeometry width="320" height="40" as="geometry" />
        </mxCell>
        <mxCell id="GWg-XANY6kdctSkGbIym-396" value="eployee_id" style="shape=partialRectangle;html=1;whiteSpace=wrap;connectable=0;strokeColor=inherit;overflow=hidden;fillColor=none;top=0;left=0;bottom=0;right=0;pointerEvents=1;fontSize=16;" vertex="1" parent="GWg-XANY6kdctSkGbIym-395">
          <mxGeometry width="107" height="40" as="geometry">
            <mxRectangle width="107" height="40" as="alternateBounds" />
          </mxGeometry>
        </mxCell>
        <mxCell id="GWg-XANY6kdctSkGbIym-397" value="name" style="shape=partialRectangle;html=1;whiteSpace=wrap;connectable=0;strokeColor=inherit;overflow=hidden;fillColor=none;top=0;left=0;bottom=0;right=0;pointerEvents=1;fontSize=16;" vertex="1" parent="GWg-XANY6kdctSkGbIym-395">
          <mxGeometry x="107" width="106" height="40" as="geometry">
            <mxRectangle width="106" height="40" as="alternateBounds" />
          </mxGeometry>
        </mxCell>
        <mxCell id="GWg-XANY6kdctSkGbIym-398" value="state_code" style="shape=partialRectangle;html=1;whiteSpace=wrap;connectable=0;strokeColor=inherit;overflow=hidden;fillColor=none;top=0;left=0;bottom=0;right=0;pointerEvents=1;fontSize=16;" vertex="1" parent="GWg-XANY6kdctSkGbIym-395">
          <mxGeometry x="213" width="107" height="40" as="geometry">
            <mxRectangle width="107" height="40" as="alternateBounds" />
          </mxGeometry>
        </mxCell>
        <mxCell id="GWg-XANY6kdctSkGbIym-399" value="" style="shape=tableRow;horizontal=0;startSize=0;swimlaneHead=0;swimlaneBody=0;strokeColor=inherit;top=0;left=0;bottom=0;right=0;collapsible=0;dropTarget=0;fillColor=none;points=[[0,0.5],[1,0.5]];portConstraint=eastwest;fontSize=16;" vertex="1" parent="GWg-XANY6kdctSkGbIym-394">
          <mxGeometry y="40" width="320" height="40" as="geometry" />
        </mxCell>
        <mxCell id="GWg-XANY6kdctSkGbIym-400" value="E001" style="shape=partialRectangle;html=1;whiteSpace=wrap;connectable=0;strokeColor=inherit;overflow=hidden;fillColor=none;top=0;left=0;bottom=0;right=0;pointerEvents=1;fontSize=16;" vertex="1" parent="GWg-XANY6kdctSkGbIym-399">
          <mxGeometry width="107" height="40" as="geometry">
            <mxRectangle width="107" height="40" as="alternateBounds" />
          </mxGeometry>
        </mxCell>
        <mxCell id="GWg-XANY6kdctSkGbIym-401" value="Alice" style="shape=partialRectangle;html=1;whiteSpace=wrap;connectable=0;strokeColor=inherit;overflow=hidden;fillColor=none;top=0;left=0;bottom=0;right=0;pointerEvents=1;fontSize=16;" vertex="1" parent="GWg-XANY6kdctSkGbIym-399">
          <mxGeometry x="107" width="106" height="40" as="geometry">
            <mxRectangle width="106" height="40" as="alternateBounds" />
          </mxGeometry>
        </mxCell>
        <mxCell id="GWg-XANY6kdctSkGbIym-402" value="26" style="shape=partialRectangle;html=1;whiteSpace=wrap;connectable=0;strokeColor=inherit;overflow=hidden;fillColor=none;top=0;left=0;bottom=0;right=0;pointerEvents=1;fontSize=16;" vertex="1" parent="GWg-XANY6kdctSkGbIym-399">
          <mxGeometry x="213" width="107" height="40" as="geometry">
            <mxRectangle width="107" height="40" as="alternateBounds" />
          </mxGeometry>
        </mxCell>
        <mxCell id="GWg-XANY6kdctSkGbIym-403" value="" style="shape=tableRow;horizontal=0;startSize=0;swimlaneHead=0;swimlaneBody=0;strokeColor=inherit;top=0;left=0;bottom=0;right=0;collapsible=0;dropTarget=0;fillColor=none;points=[[0,0.5],[1,0.5]];portConstraint=eastwest;fontSize=16;" vertex="1" parent="GWg-XANY6kdctSkGbIym-394">
          <mxGeometry y="80" width="320" height="40" as="geometry" />
        </mxCell>
        <mxCell id="GWg-XANY6kdctSkGbIym-404" value="E002" style="shape=partialRectangle;html=1;whiteSpace=wrap;connectable=0;strokeColor=inherit;overflow=hidden;fillColor=none;top=0;left=0;bottom=0;right=0;pointerEvents=1;fontSize=16;" vertex="1" parent="GWg-XANY6kdctSkGbIym-403">
          <mxGeometry width="107" height="40" as="geometry">
            <mxRectangle width="107" height="40" as="alternateBounds" />
          </mxGeometry>
        </mxCell>
        <mxCell id="GWg-XANY6kdctSkGbIym-405" value="Bob" style="shape=partialRectangle;html=1;whiteSpace=wrap;connectable=0;strokeColor=inherit;overflow=hidden;fillColor=none;top=0;left=0;bottom=0;right=0;pointerEvents=1;fontSize=16;" vertex="1" parent="GWg-XANY6kdctSkGbIym-403">
          <mxGeometry x="107" width="106" height="40" as="geometry">
            <mxRectangle width="106" height="40" as="alternateBounds" />
          </mxGeometry>
        </mxCell>
        <mxCell id="GWg-XANY6kdctSkGbIym-406" value="56" style="shape=partialRectangle;html=1;whiteSpace=wrap;connectable=0;strokeColor=inherit;overflow=hidden;fillColor=none;top=0;left=0;bottom=0;right=0;pointerEvents=1;fontSize=16;" vertex="1" parent="GWg-XANY6kdctSkGbIym-403">
          <mxGeometry x="213" width="107" height="40" as="geometry">
            <mxRectangle width="107" height="40" as="alternateBounds" />
          </mxGeometry>
        </mxCell>
        <mxCell id="GWg-XANY6kdctSkGbIym-433" style="shape=tableRow;horizontal=0;startSize=0;swimlaneHead=0;swimlaneBody=0;strokeColor=inherit;top=0;left=0;bottom=0;right=0;collapsible=0;dropTarget=0;fillColor=none;points=[[0,0.5],[1,0.5]];portConstraint=eastwest;fontSize=16;" vertex="1" parent="GWg-XANY6kdctSkGbIym-394">
          <mxGeometry y="120" width="320" height="40" as="geometry" />
        </mxCell>
        <mxCell id="GWg-XANY6kdctSkGbIym-434" value="E003" style="shape=partialRectangle;html=1;whiteSpace=wrap;connectable=0;strokeColor=inherit;overflow=hidden;fillColor=none;top=0;left=0;bottom=0;right=0;pointerEvents=1;fontSize=16;" vertex="1" parent="GWg-XANY6kdctSkGbIym-433">
          <mxGeometry width="107" height="40" as="geometry">
            <mxRectangle width="107" height="40" as="alternateBounds" />
          </mxGeometry>
        </mxCell>
        <mxCell id="GWg-XANY6kdctSkGbIym-435" value="Alice" style="shape=partialRectangle;html=1;whiteSpace=wrap;connectable=0;strokeColor=inherit;overflow=hidden;fillColor=none;top=0;left=0;bottom=0;right=0;pointerEvents=1;fontSize=16;" vertex="1" parent="GWg-XANY6kdctSkGbIym-433">
          <mxGeometry x="107" width="106" height="40" as="geometry">
            <mxRectangle width="106" height="40" as="alternateBounds" />
          </mxGeometry>
        </mxCell>
        <mxCell id="GWg-XANY6kdctSkGbIym-436" value="56" style="shape=partialRectangle;html=1;whiteSpace=wrap;connectable=0;strokeColor=inherit;overflow=hidden;fillColor=none;top=0;left=0;bottom=0;right=0;pointerEvents=1;fontSize=16;" vertex="1" parent="GWg-XANY6kdctSkGbIym-433">
          <mxGeometry x="213" width="107" height="40" as="geometry">
            <mxRectangle width="107" height="40" as="alternateBounds" />
          </mxGeometry>
        </mxCell>
        <mxCell id="GWg-XANY6kdctSkGbIym-407" value="" style="shape=table;startSize=0;container=1;collapsible=0;childLayout=tableLayout;fontSize=16;" vertex="1" parent="1">
          <mxGeometry x="519" y="2300" width="221" height="160" as="geometry" />
        </mxCell>
        <mxCell id="GWg-XANY6kdctSkGbIym-408" value="" style="shape=tableRow;horizontal=0;startSize=0;swimlaneHead=0;swimlaneBody=0;strokeColor=inherit;top=0;left=0;bottom=0;right=0;collapsible=0;dropTarget=0;fillColor=none;points=[[0,0.5],[1,0.5]];portConstraint=eastwest;fontSize=16;" vertex="1" parent="GWg-XANY6kdctSkGbIym-407">
          <mxGeometry width="221" height="40" as="geometry" />
        </mxCell>
        <mxCell id="GWg-XANY6kdctSkGbIym-409" value="job_code" style="shape=partialRectangle;html=1;whiteSpace=wrap;connectable=0;strokeColor=inherit;overflow=hidden;fillColor=none;top=0;left=0;bottom=0;right=0;pointerEvents=1;fontSize=16;" vertex="1" parent="GWg-XANY6kdctSkGbIym-408">
          <mxGeometry width="109" height="40" as="geometry">
            <mxRectangle width="109" height="40" as="alternateBounds" />
          </mxGeometry>
        </mxCell>
        <mxCell id="GWg-XANY6kdctSkGbIym-410" value="job" style="shape=partialRectangle;html=1;whiteSpace=wrap;connectable=0;strokeColor=inherit;overflow=hidden;fillColor=none;top=0;left=0;bottom=0;right=0;pointerEvents=1;fontSize=16;" vertex="1" parent="GWg-XANY6kdctSkGbIym-408">
          <mxGeometry x="109" width="112" height="40" as="geometry">
            <mxRectangle width="112" height="40" as="alternateBounds" />
          </mxGeometry>
        </mxCell>
        <mxCell id="GWg-XANY6kdctSkGbIym-412" value="" style="shape=tableRow;horizontal=0;startSize=0;swimlaneHead=0;swimlaneBody=0;strokeColor=inherit;top=0;left=0;bottom=0;right=0;collapsible=0;dropTarget=0;fillColor=none;points=[[0,0.5],[1,0.5]];portConstraint=eastwest;fontSize=16;" vertex="1" parent="GWg-XANY6kdctSkGbIym-407">
          <mxGeometry y="40" width="221" height="40" as="geometry" />
        </mxCell>
        <mxCell id="GWg-XANY6kdctSkGbIym-413" value="J01" style="shape=partialRectangle;html=1;whiteSpace=wrap;connectable=0;strokeColor=inherit;overflow=hidden;fillColor=none;top=0;left=0;bottom=0;right=0;pointerEvents=1;fontSize=16;" vertex="1" parent="GWg-XANY6kdctSkGbIym-412">
          <mxGeometry width="109" height="40" as="geometry">
            <mxRectangle width="109" height="40" as="alternateBounds" />
          </mxGeometry>
        </mxCell>
        <mxCell id="GWg-XANY6kdctSkGbIym-414" value="Chef" style="shape=partialRectangle;html=1;whiteSpace=wrap;connectable=0;strokeColor=inherit;overflow=hidden;fillColor=none;top=0;left=0;bottom=0;right=0;pointerEvents=1;fontSize=16;" vertex="1" parent="GWg-XANY6kdctSkGbIym-412">
          <mxGeometry x="109" width="112" height="40" as="geometry">
            <mxRectangle width="112" height="40" as="alternateBounds" />
          </mxGeometry>
        </mxCell>
        <mxCell id="GWg-XANY6kdctSkGbIym-416" value="" style="shape=tableRow;horizontal=0;startSize=0;swimlaneHead=0;swimlaneBody=0;strokeColor=inherit;top=0;left=0;bottom=0;right=0;collapsible=0;dropTarget=0;fillColor=none;points=[[0,0.5],[1,0.5]];portConstraint=eastwest;fontSize=16;" vertex="1" parent="GWg-XANY6kdctSkGbIym-407">
          <mxGeometry y="80" width="221" height="40" as="geometry" />
        </mxCell>
        <mxCell id="GWg-XANY6kdctSkGbIym-417" value="J02" style="shape=partialRectangle;html=1;whiteSpace=wrap;connectable=0;strokeColor=inherit;overflow=hidden;fillColor=none;top=0;left=0;bottom=0;right=0;pointerEvents=1;fontSize=16;" vertex="1" parent="GWg-XANY6kdctSkGbIym-416">
          <mxGeometry width="109" height="40" as="geometry">
            <mxRectangle width="109" height="40" as="alternateBounds" />
          </mxGeometry>
        </mxCell>
        <mxCell id="GWg-XANY6kdctSkGbIym-418" value="Waiter" style="shape=partialRectangle;html=1;whiteSpace=wrap;connectable=0;strokeColor=inherit;overflow=hidden;fillColor=none;top=0;left=0;bottom=0;right=0;pointerEvents=1;fontSize=16;" vertex="1" parent="GWg-XANY6kdctSkGbIym-416">
          <mxGeometry x="109" width="112" height="40" as="geometry">
            <mxRectangle width="112" height="40" as="alternateBounds" />
          </mxGeometry>
        </mxCell>
        <mxCell id="GWg-XANY6kdctSkGbIym-437" style="shape=tableRow;horizontal=0;startSize=0;swimlaneHead=0;swimlaneBody=0;strokeColor=inherit;top=0;left=0;bottom=0;right=0;collapsible=0;dropTarget=0;fillColor=none;points=[[0,0.5],[1,0.5]];portConstraint=eastwest;fontSize=16;" vertex="1" parent="GWg-XANY6kdctSkGbIym-407">
          <mxGeometry y="120" width="221" height="40" as="geometry" />
        </mxCell>
        <mxCell id="GWg-XANY6kdctSkGbIym-438" value="J03" style="shape=partialRectangle;html=1;whiteSpace=wrap;connectable=0;strokeColor=inherit;overflow=hidden;fillColor=none;top=0;left=0;bottom=0;right=0;pointerEvents=1;fontSize=16;" vertex="1" parent="GWg-XANY6kdctSkGbIym-437">
          <mxGeometry width="109" height="40" as="geometry">
            <mxRectangle width="109" height="40" as="alternateBounds" />
          </mxGeometry>
        </mxCell>
        <mxCell id="GWg-XANY6kdctSkGbIym-439" value="Bartender" style="shape=partialRectangle;html=1;whiteSpace=wrap;connectable=0;strokeColor=inherit;overflow=hidden;fillColor=none;top=0;left=0;bottom=0;right=0;pointerEvents=1;fontSize=16;" vertex="1" parent="GWg-XANY6kdctSkGbIym-437">
          <mxGeometry x="109" width="112" height="40" as="geometry">
            <mxRectangle width="112" height="40" as="alternateBounds" />
          </mxGeometry>
        </mxCell>
        <mxCell id="GWg-XANY6kdctSkGbIym-420" value="" style="shape=table;startSize=0;container=1;collapsible=0;childLayout=tableLayout;fontSize=16;" vertex="1" parent="1">
          <mxGeometry x="870" y="2300" width="340" height="240" as="geometry" />
        </mxCell>
        <mxCell id="GWg-XANY6kdctSkGbIym-421" value="" style="shape=tableRow;horizontal=0;startSize=0;swimlaneHead=0;swimlaneBody=0;strokeColor=inherit;top=0;left=0;bottom=0;right=0;collapsible=0;dropTarget=0;fillColor=none;points=[[0,0.5],[1,0.5]];portConstraint=eastwest;fontSize=16;" vertex="1" parent="GWg-XANY6kdctSkGbIym-420">
          <mxGeometry width="340" height="40" as="geometry" />
        </mxCell>
        <mxCell id="GWg-XANY6kdctSkGbIym-422" value="employee_id" style="shape=partialRectangle;html=1;whiteSpace=wrap;connectable=0;strokeColor=inherit;overflow=hidden;fillColor=none;top=0;left=0;bottom=0;right=0;pointerEvents=1;fontSize=16;" vertex="1" parent="GWg-XANY6kdctSkGbIym-421">
          <mxGeometry width="170" height="40" as="geometry">
            <mxRectangle width="170" height="40" as="alternateBounds" />
          </mxGeometry>
        </mxCell>
        <mxCell id="GWg-XANY6kdctSkGbIym-423" value="job_code" style="shape=partialRectangle;html=1;whiteSpace=wrap;connectable=0;strokeColor=inherit;overflow=hidden;fillColor=none;top=0;left=0;bottom=0;right=0;pointerEvents=1;fontSize=16;" vertex="1" parent="GWg-XANY6kdctSkGbIym-421">
          <mxGeometry x="170" width="170" height="40" as="geometry">
            <mxRectangle width="170" height="40" as="alternateBounds" />
          </mxGeometry>
        </mxCell>
        <mxCell id="GWg-XANY6kdctSkGbIym-425" value="" style="shape=tableRow;horizontal=0;startSize=0;swimlaneHead=0;swimlaneBody=0;strokeColor=inherit;top=0;left=0;bottom=0;right=0;collapsible=0;dropTarget=0;fillColor=none;points=[[0,0.5],[1,0.5]];portConstraint=eastwest;fontSize=16;" vertex="1" parent="GWg-XANY6kdctSkGbIym-420">
          <mxGeometry y="40" width="340" height="40" as="geometry" />
        </mxCell>
        <mxCell id="GWg-XANY6kdctSkGbIym-426" value="E001" style="shape=partialRectangle;html=1;whiteSpace=wrap;connectable=0;strokeColor=inherit;overflow=hidden;fillColor=none;top=0;left=0;bottom=0;right=0;pointerEvents=1;fontSize=16;" vertex="1" parent="GWg-XANY6kdctSkGbIym-425">
          <mxGeometry width="170" height="40" as="geometry">
            <mxRectangle width="170" height="40" as="alternateBounds" />
          </mxGeometry>
        </mxCell>
        <mxCell id="GWg-XANY6kdctSkGbIym-427" value="J01" style="shape=partialRectangle;html=1;whiteSpace=wrap;connectable=0;strokeColor=inherit;overflow=hidden;fillColor=none;top=0;left=0;bottom=0;right=0;pointerEvents=1;fontSize=16;" vertex="1" parent="GWg-XANY6kdctSkGbIym-425">
          <mxGeometry x="170" width="170" height="40" as="geometry">
            <mxRectangle width="170" height="40" as="alternateBounds" />
          </mxGeometry>
        </mxCell>
        <mxCell id="GWg-XANY6kdctSkGbIym-429" value="" style="shape=tableRow;horizontal=0;startSize=0;swimlaneHead=0;swimlaneBody=0;strokeColor=inherit;top=0;left=0;bottom=0;right=0;collapsible=0;dropTarget=0;fillColor=none;points=[[0,0.5],[1,0.5]];portConstraint=eastwest;fontSize=16;" vertex="1" parent="GWg-XANY6kdctSkGbIym-420">
          <mxGeometry y="80" width="340" height="40" as="geometry" />
        </mxCell>
        <mxCell id="GWg-XANY6kdctSkGbIym-430" value="E001" style="shape=partialRectangle;html=1;whiteSpace=wrap;connectable=0;strokeColor=inherit;overflow=hidden;fillColor=none;top=0;left=0;bottom=0;right=0;pointerEvents=1;fontSize=16;" vertex="1" parent="GWg-XANY6kdctSkGbIym-429">
          <mxGeometry width="170" height="40" as="geometry">
            <mxRectangle width="170" height="40" as="alternateBounds" />
          </mxGeometry>
        </mxCell>
        <mxCell id="GWg-XANY6kdctSkGbIym-431" value="J02" style="shape=partialRectangle;html=1;whiteSpace=wrap;connectable=0;strokeColor=inherit;overflow=hidden;fillColor=none;top=0;left=0;bottom=0;right=0;pointerEvents=1;fontSize=16;" vertex="1" parent="GWg-XANY6kdctSkGbIym-429">
          <mxGeometry x="170" width="170" height="40" as="geometry">
            <mxRectangle width="170" height="40" as="alternateBounds" />
          </mxGeometry>
        </mxCell>
        <mxCell id="GWg-XANY6kdctSkGbIym-443" style="shape=tableRow;horizontal=0;startSize=0;swimlaneHead=0;swimlaneBody=0;strokeColor=inherit;top=0;left=0;bottom=0;right=0;collapsible=0;dropTarget=0;fillColor=none;points=[[0,0.5],[1,0.5]];portConstraint=eastwest;fontSize=16;" vertex="1" parent="GWg-XANY6kdctSkGbIym-420">
          <mxGeometry y="120" width="340" height="40" as="geometry" />
        </mxCell>
        <mxCell id="GWg-XANY6kdctSkGbIym-444" value="E002" style="shape=partialRectangle;html=1;whiteSpace=wrap;connectable=0;strokeColor=inherit;overflow=hidden;fillColor=none;top=0;left=0;bottom=0;right=0;pointerEvents=1;fontSize=16;" vertex="1" parent="GWg-XANY6kdctSkGbIym-443">
          <mxGeometry width="170" height="40" as="geometry">
            <mxRectangle width="170" height="40" as="alternateBounds" />
          </mxGeometry>
        </mxCell>
        <mxCell id="GWg-XANY6kdctSkGbIym-445" value="J02" style="shape=partialRectangle;html=1;whiteSpace=wrap;connectable=0;strokeColor=inherit;overflow=hidden;fillColor=none;top=0;left=0;bottom=0;right=0;pointerEvents=1;fontSize=16;" vertex="1" parent="GWg-XANY6kdctSkGbIym-443">
          <mxGeometry x="170" width="170" height="40" as="geometry">
            <mxRectangle width="170" height="40" as="alternateBounds" />
          </mxGeometry>
        </mxCell>
        <mxCell id="GWg-XANY6kdctSkGbIym-446" style="shape=tableRow;horizontal=0;startSize=0;swimlaneHead=0;swimlaneBody=0;strokeColor=inherit;top=0;left=0;bottom=0;right=0;collapsible=0;dropTarget=0;fillColor=none;points=[[0,0.5],[1,0.5]];portConstraint=eastwest;fontSize=16;" vertex="1" parent="GWg-XANY6kdctSkGbIym-420">
          <mxGeometry y="160" width="340" height="40" as="geometry" />
        </mxCell>
        <mxCell id="GWg-XANY6kdctSkGbIym-447" value="E002" style="shape=partialRectangle;html=1;whiteSpace=wrap;connectable=0;strokeColor=inherit;overflow=hidden;fillColor=none;top=0;left=0;bottom=0;right=0;pointerEvents=1;fontSize=16;" vertex="1" parent="GWg-XANY6kdctSkGbIym-446">
          <mxGeometry width="170" height="40" as="geometry">
            <mxRectangle width="170" height="40" as="alternateBounds" />
          </mxGeometry>
        </mxCell>
        <mxCell id="GWg-XANY6kdctSkGbIym-448" value="J03" style="shape=partialRectangle;html=1;whiteSpace=wrap;connectable=0;strokeColor=inherit;overflow=hidden;fillColor=none;top=0;left=0;bottom=0;right=0;pointerEvents=1;fontSize=16;" vertex="1" parent="GWg-XANY6kdctSkGbIym-446">
          <mxGeometry x="170" width="170" height="40" as="geometry">
            <mxRectangle width="170" height="40" as="alternateBounds" />
          </mxGeometry>
        </mxCell>
        <mxCell id="GWg-XANY6kdctSkGbIym-449" style="shape=tableRow;horizontal=0;startSize=0;swimlaneHead=0;swimlaneBody=0;strokeColor=inherit;top=0;left=0;bottom=0;right=0;collapsible=0;dropTarget=0;fillColor=none;points=[[0,0.5],[1,0.5]];portConstraint=eastwest;fontSize=16;" vertex="1" parent="GWg-XANY6kdctSkGbIym-420">
          <mxGeometry y="200" width="340" height="40" as="geometry" />
        </mxCell>
        <mxCell id="GWg-XANY6kdctSkGbIym-450" value="E003" style="shape=partialRectangle;html=1;whiteSpace=wrap;connectable=0;strokeColor=inherit;overflow=hidden;fillColor=none;top=0;left=0;bottom=0;right=0;pointerEvents=1;fontSize=16;" vertex="1" parent="GWg-XANY6kdctSkGbIym-449">
          <mxGeometry width="170" height="40" as="geometry">
            <mxRectangle width="170" height="40" as="alternateBounds" />
          </mxGeometry>
        </mxCell>
        <mxCell id="GWg-XANY6kdctSkGbIym-451" value="J01" style="shape=partialRectangle;html=1;whiteSpace=wrap;connectable=0;strokeColor=inherit;overflow=hidden;fillColor=none;top=0;left=0;bottom=0;right=0;pointerEvents=1;fontSize=16;" vertex="1" parent="GWg-XANY6kdctSkGbIym-449">
          <mxGeometry x="170" width="170" height="40" as="geometry">
            <mxRectangle width="170" height="40" as="alternateBounds" />
          </mxGeometry>
        </mxCell>
        <mxCell id="GWg-XANY6kdctSkGbIym-452" value="&lt;font style=&quot;font-size: 22px;&quot;&gt;3) Convert to Third Normal Form (3NF)&lt;/font&gt;" style="text;whiteSpace=wrap;html=1;" vertex="1" parent="1">
          <mxGeometry x="70" y="2640" width="420" height="40" as="geometry" />
        </mxCell>
        <mxCell id="GWg-XANY6kdctSkGbIym-453" value="" style="shape=table;startSize=0;container=1;collapsible=0;childLayout=tableLayout;fontSize=16;" vertex="1" parent="1">
          <mxGeometry x="80" y="3270" width="320" height="160" as="geometry" />
        </mxCell>
        <mxCell id="GWg-XANY6kdctSkGbIym-454" value="" style="shape=tableRow;horizontal=0;startSize=0;swimlaneHead=0;swimlaneBody=0;strokeColor=inherit;top=0;left=0;bottom=0;right=0;collapsible=0;dropTarget=0;fillColor=none;points=[[0,0.5],[1,0.5]];portConstraint=eastwest;fontSize=16;" vertex="1" parent="GWg-XANY6kdctSkGbIym-453">
          <mxGeometry width="320" height="40" as="geometry" />
        </mxCell>
        <mxCell id="GWg-XANY6kdctSkGbIym-455" value="eployee_id" style="shape=partialRectangle;html=1;whiteSpace=wrap;connectable=0;strokeColor=inherit;overflow=hidden;fillColor=none;top=0;left=0;bottom=0;right=0;pointerEvents=1;fontSize=16;" vertex="1" parent="GWg-XANY6kdctSkGbIym-454">
          <mxGeometry width="107" height="40" as="geometry">
            <mxRectangle width="107" height="40" as="alternateBounds" />
          </mxGeometry>
        </mxCell>
        <mxCell id="GWg-XANY6kdctSkGbIym-456" value="name" style="shape=partialRectangle;html=1;whiteSpace=wrap;connectable=0;strokeColor=inherit;overflow=hidden;fillColor=none;top=0;left=0;bottom=0;right=0;pointerEvents=1;fontSize=16;" vertex="1" parent="GWg-XANY6kdctSkGbIym-454">
          <mxGeometry x="107" width="106" height="40" as="geometry">
            <mxRectangle width="106" height="40" as="alternateBounds" />
          </mxGeometry>
        </mxCell>
        <mxCell id="GWg-XANY6kdctSkGbIym-457" value="state_code" style="shape=partialRectangle;html=1;whiteSpace=wrap;connectable=0;strokeColor=inherit;overflow=hidden;fillColor=none;top=0;left=0;bottom=0;right=0;pointerEvents=1;fontSize=16;" vertex="1" parent="GWg-XANY6kdctSkGbIym-454">
          <mxGeometry x="213" width="107" height="40" as="geometry">
            <mxRectangle width="107" height="40" as="alternateBounds" />
          </mxGeometry>
        </mxCell>
        <mxCell id="GWg-XANY6kdctSkGbIym-458" value="" style="shape=tableRow;horizontal=0;startSize=0;swimlaneHead=0;swimlaneBody=0;strokeColor=inherit;top=0;left=0;bottom=0;right=0;collapsible=0;dropTarget=0;fillColor=none;points=[[0,0.5],[1,0.5]];portConstraint=eastwest;fontSize=16;" vertex="1" parent="GWg-XANY6kdctSkGbIym-453">
          <mxGeometry y="40" width="320" height="40" as="geometry" />
        </mxCell>
        <mxCell id="GWg-XANY6kdctSkGbIym-459" value="E001" style="shape=partialRectangle;html=1;whiteSpace=wrap;connectable=0;strokeColor=inherit;overflow=hidden;fillColor=none;top=0;left=0;bottom=0;right=0;pointerEvents=1;fontSize=16;" vertex="1" parent="GWg-XANY6kdctSkGbIym-458">
          <mxGeometry width="107" height="40" as="geometry">
            <mxRectangle width="107" height="40" as="alternateBounds" />
          </mxGeometry>
        </mxCell>
        <mxCell id="GWg-XANY6kdctSkGbIym-460" value="Alice" style="shape=partialRectangle;html=1;whiteSpace=wrap;connectable=0;strokeColor=inherit;overflow=hidden;fillColor=none;top=0;left=0;bottom=0;right=0;pointerEvents=1;fontSize=16;" vertex="1" parent="GWg-XANY6kdctSkGbIym-458">
          <mxGeometry x="107" width="106" height="40" as="geometry">
            <mxRectangle width="106" height="40" as="alternateBounds" />
          </mxGeometry>
        </mxCell>
        <mxCell id="GWg-XANY6kdctSkGbIym-461" value="26" style="shape=partialRectangle;html=1;whiteSpace=wrap;connectable=0;strokeColor=inherit;overflow=hidden;fillColor=none;top=0;left=0;bottom=0;right=0;pointerEvents=1;fontSize=16;" vertex="1" parent="GWg-XANY6kdctSkGbIym-458">
          <mxGeometry x="213" width="107" height="40" as="geometry">
            <mxRectangle width="107" height="40" as="alternateBounds" />
          </mxGeometry>
        </mxCell>
        <mxCell id="GWg-XANY6kdctSkGbIym-462" value="" style="shape=tableRow;horizontal=0;startSize=0;swimlaneHead=0;swimlaneBody=0;strokeColor=inherit;top=0;left=0;bottom=0;right=0;collapsible=0;dropTarget=0;fillColor=none;points=[[0,0.5],[1,0.5]];portConstraint=eastwest;fontSize=16;" vertex="1" parent="GWg-XANY6kdctSkGbIym-453">
          <mxGeometry y="80" width="320" height="40" as="geometry" />
        </mxCell>
        <mxCell id="GWg-XANY6kdctSkGbIym-463" value="E002" style="shape=partialRectangle;html=1;whiteSpace=wrap;connectable=0;strokeColor=inherit;overflow=hidden;fillColor=none;top=0;left=0;bottom=0;right=0;pointerEvents=1;fontSize=16;" vertex="1" parent="GWg-XANY6kdctSkGbIym-462">
          <mxGeometry width="107" height="40" as="geometry">
            <mxRectangle width="107" height="40" as="alternateBounds" />
          </mxGeometry>
        </mxCell>
        <mxCell id="GWg-XANY6kdctSkGbIym-464" value="Bob" style="shape=partialRectangle;html=1;whiteSpace=wrap;connectable=0;strokeColor=inherit;overflow=hidden;fillColor=none;top=0;left=0;bottom=0;right=0;pointerEvents=1;fontSize=16;" vertex="1" parent="GWg-XANY6kdctSkGbIym-462">
          <mxGeometry x="107" width="106" height="40" as="geometry">
            <mxRectangle width="106" height="40" as="alternateBounds" />
          </mxGeometry>
        </mxCell>
        <mxCell id="GWg-XANY6kdctSkGbIym-465" value="56" style="shape=partialRectangle;html=1;whiteSpace=wrap;connectable=0;strokeColor=inherit;overflow=hidden;fillColor=none;top=0;left=0;bottom=0;right=0;pointerEvents=1;fontSize=16;" vertex="1" parent="GWg-XANY6kdctSkGbIym-462">
          <mxGeometry x="213" width="107" height="40" as="geometry">
            <mxRectangle width="107" height="40" as="alternateBounds" />
          </mxGeometry>
        </mxCell>
        <mxCell id="GWg-XANY6kdctSkGbIym-466" style="shape=tableRow;horizontal=0;startSize=0;swimlaneHead=0;swimlaneBody=0;strokeColor=inherit;top=0;left=0;bottom=0;right=0;collapsible=0;dropTarget=0;fillColor=none;points=[[0,0.5],[1,0.5]];portConstraint=eastwest;fontSize=16;" vertex="1" parent="GWg-XANY6kdctSkGbIym-453">
          <mxGeometry y="120" width="320" height="40" as="geometry" />
        </mxCell>
        <mxCell id="GWg-XANY6kdctSkGbIym-467" value="E003" style="shape=partialRectangle;html=1;whiteSpace=wrap;connectable=0;strokeColor=inherit;overflow=hidden;fillColor=none;top=0;left=0;bottom=0;right=0;pointerEvents=1;fontSize=16;" vertex="1" parent="GWg-XANY6kdctSkGbIym-466">
          <mxGeometry width="107" height="40" as="geometry">
            <mxRectangle width="107" height="40" as="alternateBounds" />
          </mxGeometry>
        </mxCell>
        <mxCell id="GWg-XANY6kdctSkGbIym-468" value="Alice" style="shape=partialRectangle;html=1;whiteSpace=wrap;connectable=0;strokeColor=inherit;overflow=hidden;fillColor=none;top=0;left=0;bottom=0;right=0;pointerEvents=1;fontSize=16;" vertex="1" parent="GWg-XANY6kdctSkGbIym-466">
          <mxGeometry x="107" width="106" height="40" as="geometry">
            <mxRectangle width="106" height="40" as="alternateBounds" />
          </mxGeometry>
        </mxCell>
        <mxCell id="GWg-XANY6kdctSkGbIym-469" value="56" style="shape=partialRectangle;html=1;whiteSpace=wrap;connectable=0;strokeColor=inherit;overflow=hidden;fillColor=none;top=0;left=0;bottom=0;right=0;pointerEvents=1;fontSize=16;" vertex="1" parent="GWg-XANY6kdctSkGbIym-466">
          <mxGeometry x="213" width="107" height="40" as="geometry">
            <mxRectangle width="107" height="40" as="alternateBounds" />
          </mxGeometry>
        </mxCell>
        <mxCell id="GWg-XANY6kdctSkGbIym-470" value="" style="shape=table;startSize=0;container=1;collapsible=0;childLayout=tableLayout;fontSize=16;" vertex="1" parent="1">
          <mxGeometry x="470" y="3270" width="221" height="160" as="geometry" />
        </mxCell>
        <mxCell id="GWg-XANY6kdctSkGbIym-471" value="" style="shape=tableRow;horizontal=0;startSize=0;swimlaneHead=0;swimlaneBody=0;strokeColor=inherit;top=0;left=0;bottom=0;right=0;collapsible=0;dropTarget=0;fillColor=none;points=[[0,0.5],[1,0.5]];portConstraint=eastwest;fontSize=16;" vertex="1" parent="GWg-XANY6kdctSkGbIym-470">
          <mxGeometry width="221" height="40" as="geometry" />
        </mxCell>
        <mxCell id="GWg-XANY6kdctSkGbIym-472" value="job_code" style="shape=partialRectangle;html=1;whiteSpace=wrap;connectable=0;strokeColor=inherit;overflow=hidden;fillColor=none;top=0;left=0;bottom=0;right=0;pointerEvents=1;fontSize=16;" vertex="1" parent="GWg-XANY6kdctSkGbIym-471">
          <mxGeometry width="109" height="40" as="geometry">
            <mxRectangle width="109" height="40" as="alternateBounds" />
          </mxGeometry>
        </mxCell>
        <mxCell id="GWg-XANY6kdctSkGbIym-473" value="job" style="shape=partialRectangle;html=1;whiteSpace=wrap;connectable=0;strokeColor=inherit;overflow=hidden;fillColor=none;top=0;left=0;bottom=0;right=0;pointerEvents=1;fontSize=16;" vertex="1" parent="GWg-XANY6kdctSkGbIym-471">
          <mxGeometry x="109" width="112" height="40" as="geometry">
            <mxRectangle width="112" height="40" as="alternateBounds" />
          </mxGeometry>
        </mxCell>
        <mxCell id="GWg-XANY6kdctSkGbIym-474" value="" style="shape=tableRow;horizontal=0;startSize=0;swimlaneHead=0;swimlaneBody=0;strokeColor=inherit;top=0;left=0;bottom=0;right=0;collapsible=0;dropTarget=0;fillColor=none;points=[[0,0.5],[1,0.5]];portConstraint=eastwest;fontSize=16;" vertex="1" parent="GWg-XANY6kdctSkGbIym-470">
          <mxGeometry y="40" width="221" height="40" as="geometry" />
        </mxCell>
        <mxCell id="GWg-XANY6kdctSkGbIym-475" value="J01" style="shape=partialRectangle;html=1;whiteSpace=wrap;connectable=0;strokeColor=inherit;overflow=hidden;fillColor=none;top=0;left=0;bottom=0;right=0;pointerEvents=1;fontSize=16;" vertex="1" parent="GWg-XANY6kdctSkGbIym-474">
          <mxGeometry width="109" height="40" as="geometry">
            <mxRectangle width="109" height="40" as="alternateBounds" />
          </mxGeometry>
        </mxCell>
        <mxCell id="GWg-XANY6kdctSkGbIym-476" value="Chef" style="shape=partialRectangle;html=1;whiteSpace=wrap;connectable=0;strokeColor=inherit;overflow=hidden;fillColor=none;top=0;left=0;bottom=0;right=0;pointerEvents=1;fontSize=16;" vertex="1" parent="GWg-XANY6kdctSkGbIym-474">
          <mxGeometry x="109" width="112" height="40" as="geometry">
            <mxRectangle width="112" height="40" as="alternateBounds" />
          </mxGeometry>
        </mxCell>
        <mxCell id="GWg-XANY6kdctSkGbIym-477" value="" style="shape=tableRow;horizontal=0;startSize=0;swimlaneHead=0;swimlaneBody=0;strokeColor=inherit;top=0;left=0;bottom=0;right=0;collapsible=0;dropTarget=0;fillColor=none;points=[[0,0.5],[1,0.5]];portConstraint=eastwest;fontSize=16;" vertex="1" parent="GWg-XANY6kdctSkGbIym-470">
          <mxGeometry y="80" width="221" height="40" as="geometry" />
        </mxCell>
        <mxCell id="GWg-XANY6kdctSkGbIym-478" value="J02" style="shape=partialRectangle;html=1;whiteSpace=wrap;connectable=0;strokeColor=inherit;overflow=hidden;fillColor=none;top=0;left=0;bottom=0;right=0;pointerEvents=1;fontSize=16;" vertex="1" parent="GWg-XANY6kdctSkGbIym-477">
          <mxGeometry width="109" height="40" as="geometry">
            <mxRectangle width="109" height="40" as="alternateBounds" />
          </mxGeometry>
        </mxCell>
        <mxCell id="GWg-XANY6kdctSkGbIym-479" value="Waiter" style="shape=partialRectangle;html=1;whiteSpace=wrap;connectable=0;strokeColor=inherit;overflow=hidden;fillColor=none;top=0;left=0;bottom=0;right=0;pointerEvents=1;fontSize=16;" vertex="1" parent="GWg-XANY6kdctSkGbIym-477">
          <mxGeometry x="109" width="112" height="40" as="geometry">
            <mxRectangle width="112" height="40" as="alternateBounds" />
          </mxGeometry>
        </mxCell>
        <mxCell id="GWg-XANY6kdctSkGbIym-480" style="shape=tableRow;horizontal=0;startSize=0;swimlaneHead=0;swimlaneBody=0;strokeColor=inherit;top=0;left=0;bottom=0;right=0;collapsible=0;dropTarget=0;fillColor=none;points=[[0,0.5],[1,0.5]];portConstraint=eastwest;fontSize=16;" vertex="1" parent="GWg-XANY6kdctSkGbIym-470">
          <mxGeometry y="120" width="221" height="40" as="geometry" />
        </mxCell>
        <mxCell id="GWg-XANY6kdctSkGbIym-481" value="J03" style="shape=partialRectangle;html=1;whiteSpace=wrap;connectable=0;strokeColor=inherit;overflow=hidden;fillColor=none;top=0;left=0;bottom=0;right=0;pointerEvents=1;fontSize=16;" vertex="1" parent="GWg-XANY6kdctSkGbIym-480">
          <mxGeometry width="109" height="40" as="geometry">
            <mxRectangle width="109" height="40" as="alternateBounds" />
          </mxGeometry>
        </mxCell>
        <mxCell id="GWg-XANY6kdctSkGbIym-482" value="Bartender" style="shape=partialRectangle;html=1;whiteSpace=wrap;connectable=0;strokeColor=inherit;overflow=hidden;fillColor=none;top=0;left=0;bottom=0;right=0;pointerEvents=1;fontSize=16;" vertex="1" parent="GWg-XANY6kdctSkGbIym-480">
          <mxGeometry x="109" width="112" height="40" as="geometry">
            <mxRectangle width="112" height="40" as="alternateBounds" />
          </mxGeometry>
        </mxCell>
        <mxCell id="GWg-XANY6kdctSkGbIym-483" value="" style="shape=table;startSize=0;container=1;collapsible=0;childLayout=tableLayout;fontSize=16;" vertex="1" parent="1">
          <mxGeometry x="780" y="3270" width="340" height="240" as="geometry" />
        </mxCell>
        <mxCell id="GWg-XANY6kdctSkGbIym-484" value="" style="shape=tableRow;horizontal=0;startSize=0;swimlaneHead=0;swimlaneBody=0;strokeColor=inherit;top=0;left=0;bottom=0;right=0;collapsible=0;dropTarget=0;fillColor=none;points=[[0,0.5],[1,0.5]];portConstraint=eastwest;fontSize=16;" vertex="1" parent="GWg-XANY6kdctSkGbIym-483">
          <mxGeometry width="340" height="40" as="geometry" />
        </mxCell>
        <mxCell id="GWg-XANY6kdctSkGbIym-485" value="employee_id" style="shape=partialRectangle;html=1;whiteSpace=wrap;connectable=0;strokeColor=inherit;overflow=hidden;fillColor=none;top=0;left=0;bottom=0;right=0;pointerEvents=1;fontSize=16;" vertex="1" parent="GWg-XANY6kdctSkGbIym-484">
          <mxGeometry width="170" height="40" as="geometry">
            <mxRectangle width="170" height="40" as="alternateBounds" />
          </mxGeometry>
        </mxCell>
        <mxCell id="GWg-XANY6kdctSkGbIym-486" value="job_code" style="shape=partialRectangle;html=1;whiteSpace=wrap;connectable=0;strokeColor=inherit;overflow=hidden;fillColor=none;top=0;left=0;bottom=0;right=0;pointerEvents=1;fontSize=16;" vertex="1" parent="GWg-XANY6kdctSkGbIym-484">
          <mxGeometry x="170" width="170" height="40" as="geometry">
            <mxRectangle width="170" height="40" as="alternateBounds" />
          </mxGeometry>
        </mxCell>
        <mxCell id="GWg-XANY6kdctSkGbIym-487" value="" style="shape=tableRow;horizontal=0;startSize=0;swimlaneHead=0;swimlaneBody=0;strokeColor=inherit;top=0;left=0;bottom=0;right=0;collapsible=0;dropTarget=0;fillColor=none;points=[[0,0.5],[1,0.5]];portConstraint=eastwest;fontSize=16;" vertex="1" parent="GWg-XANY6kdctSkGbIym-483">
          <mxGeometry y="40" width="340" height="40" as="geometry" />
        </mxCell>
        <mxCell id="GWg-XANY6kdctSkGbIym-488" value="E001" style="shape=partialRectangle;html=1;whiteSpace=wrap;connectable=0;strokeColor=inherit;overflow=hidden;fillColor=none;top=0;left=0;bottom=0;right=0;pointerEvents=1;fontSize=16;" vertex="1" parent="GWg-XANY6kdctSkGbIym-487">
          <mxGeometry width="170" height="40" as="geometry">
            <mxRectangle width="170" height="40" as="alternateBounds" />
          </mxGeometry>
        </mxCell>
        <mxCell id="GWg-XANY6kdctSkGbIym-489" value="J01" style="shape=partialRectangle;html=1;whiteSpace=wrap;connectable=0;strokeColor=inherit;overflow=hidden;fillColor=none;top=0;left=0;bottom=0;right=0;pointerEvents=1;fontSize=16;" vertex="1" parent="GWg-XANY6kdctSkGbIym-487">
          <mxGeometry x="170" width="170" height="40" as="geometry">
            <mxRectangle width="170" height="40" as="alternateBounds" />
          </mxGeometry>
        </mxCell>
        <mxCell id="GWg-XANY6kdctSkGbIym-490" value="" style="shape=tableRow;horizontal=0;startSize=0;swimlaneHead=0;swimlaneBody=0;strokeColor=inherit;top=0;left=0;bottom=0;right=0;collapsible=0;dropTarget=0;fillColor=none;points=[[0,0.5],[1,0.5]];portConstraint=eastwest;fontSize=16;" vertex="1" parent="GWg-XANY6kdctSkGbIym-483">
          <mxGeometry y="80" width="340" height="40" as="geometry" />
        </mxCell>
        <mxCell id="GWg-XANY6kdctSkGbIym-491" value="E001" style="shape=partialRectangle;html=1;whiteSpace=wrap;connectable=0;strokeColor=inherit;overflow=hidden;fillColor=none;top=0;left=0;bottom=0;right=0;pointerEvents=1;fontSize=16;" vertex="1" parent="GWg-XANY6kdctSkGbIym-490">
          <mxGeometry width="170" height="40" as="geometry">
            <mxRectangle width="170" height="40" as="alternateBounds" />
          </mxGeometry>
        </mxCell>
        <mxCell id="GWg-XANY6kdctSkGbIym-492" value="J02" style="shape=partialRectangle;html=1;whiteSpace=wrap;connectable=0;strokeColor=inherit;overflow=hidden;fillColor=none;top=0;left=0;bottom=0;right=0;pointerEvents=1;fontSize=16;" vertex="1" parent="GWg-XANY6kdctSkGbIym-490">
          <mxGeometry x="170" width="170" height="40" as="geometry">
            <mxRectangle width="170" height="40" as="alternateBounds" />
          </mxGeometry>
        </mxCell>
        <mxCell id="GWg-XANY6kdctSkGbIym-493" style="shape=tableRow;horizontal=0;startSize=0;swimlaneHead=0;swimlaneBody=0;strokeColor=inherit;top=0;left=0;bottom=0;right=0;collapsible=0;dropTarget=0;fillColor=none;points=[[0,0.5],[1,0.5]];portConstraint=eastwest;fontSize=16;" vertex="1" parent="GWg-XANY6kdctSkGbIym-483">
          <mxGeometry y="120" width="340" height="40" as="geometry" />
        </mxCell>
        <mxCell id="GWg-XANY6kdctSkGbIym-494" value="E002" style="shape=partialRectangle;html=1;whiteSpace=wrap;connectable=0;strokeColor=inherit;overflow=hidden;fillColor=none;top=0;left=0;bottom=0;right=0;pointerEvents=1;fontSize=16;" vertex="1" parent="GWg-XANY6kdctSkGbIym-493">
          <mxGeometry width="170" height="40" as="geometry">
            <mxRectangle width="170" height="40" as="alternateBounds" />
          </mxGeometry>
        </mxCell>
        <mxCell id="GWg-XANY6kdctSkGbIym-495" value="J02" style="shape=partialRectangle;html=1;whiteSpace=wrap;connectable=0;strokeColor=inherit;overflow=hidden;fillColor=none;top=0;left=0;bottom=0;right=0;pointerEvents=1;fontSize=16;" vertex="1" parent="GWg-XANY6kdctSkGbIym-493">
          <mxGeometry x="170" width="170" height="40" as="geometry">
            <mxRectangle width="170" height="40" as="alternateBounds" />
          </mxGeometry>
        </mxCell>
        <mxCell id="GWg-XANY6kdctSkGbIym-496" style="shape=tableRow;horizontal=0;startSize=0;swimlaneHead=0;swimlaneBody=0;strokeColor=inherit;top=0;left=0;bottom=0;right=0;collapsible=0;dropTarget=0;fillColor=none;points=[[0,0.5],[1,0.5]];portConstraint=eastwest;fontSize=16;" vertex="1" parent="GWg-XANY6kdctSkGbIym-483">
          <mxGeometry y="160" width="340" height="40" as="geometry" />
        </mxCell>
        <mxCell id="GWg-XANY6kdctSkGbIym-497" value="E002" style="shape=partialRectangle;html=1;whiteSpace=wrap;connectable=0;strokeColor=inherit;overflow=hidden;fillColor=none;top=0;left=0;bottom=0;right=0;pointerEvents=1;fontSize=16;" vertex="1" parent="GWg-XANY6kdctSkGbIym-496">
          <mxGeometry width="170" height="40" as="geometry">
            <mxRectangle width="170" height="40" as="alternateBounds" />
          </mxGeometry>
        </mxCell>
        <mxCell id="GWg-XANY6kdctSkGbIym-498" value="J03" style="shape=partialRectangle;html=1;whiteSpace=wrap;connectable=0;strokeColor=inherit;overflow=hidden;fillColor=none;top=0;left=0;bottom=0;right=0;pointerEvents=1;fontSize=16;" vertex="1" parent="GWg-XANY6kdctSkGbIym-496">
          <mxGeometry x="170" width="170" height="40" as="geometry">
            <mxRectangle width="170" height="40" as="alternateBounds" />
          </mxGeometry>
        </mxCell>
        <mxCell id="GWg-XANY6kdctSkGbIym-499" style="shape=tableRow;horizontal=0;startSize=0;swimlaneHead=0;swimlaneBody=0;strokeColor=inherit;top=0;left=0;bottom=0;right=0;collapsible=0;dropTarget=0;fillColor=none;points=[[0,0.5],[1,0.5]];portConstraint=eastwest;fontSize=16;" vertex="1" parent="GWg-XANY6kdctSkGbIym-483">
          <mxGeometry y="200" width="340" height="40" as="geometry" />
        </mxCell>
        <mxCell id="GWg-XANY6kdctSkGbIym-500" value="E003" style="shape=partialRectangle;html=1;whiteSpace=wrap;connectable=0;strokeColor=inherit;overflow=hidden;fillColor=none;top=0;left=0;bottom=0;right=0;pointerEvents=1;fontSize=16;" vertex="1" parent="GWg-XANY6kdctSkGbIym-499">
          <mxGeometry width="170" height="40" as="geometry">
            <mxRectangle width="170" height="40" as="alternateBounds" />
          </mxGeometry>
        </mxCell>
        <mxCell id="GWg-XANY6kdctSkGbIym-501" value="J01" style="shape=partialRectangle;html=1;whiteSpace=wrap;connectable=0;strokeColor=inherit;overflow=hidden;fillColor=none;top=0;left=0;bottom=0;right=0;pointerEvents=1;fontSize=16;" vertex="1" parent="GWg-XANY6kdctSkGbIym-499">
          <mxGeometry x="170" width="170" height="40" as="geometry">
            <mxRectangle width="170" height="40" as="alternateBounds" />
          </mxGeometry>
        </mxCell>
        <mxCell id="GWg-XANY6kdctSkGbIym-502" value="" style="shape=table;startSize=0;container=1;collapsible=0;childLayout=tableLayout;fontSize=16;" vertex="1" parent="1">
          <mxGeometry x="1180" y="3270" width="207" height="120" as="geometry" />
        </mxCell>
        <mxCell id="GWg-XANY6kdctSkGbIym-503" value="" style="shape=tableRow;horizontal=0;startSize=0;swimlaneHead=0;swimlaneBody=0;strokeColor=inherit;top=0;left=0;bottom=0;right=0;collapsible=0;dropTarget=0;fillColor=none;points=[[0,0.5],[1,0.5]];portConstraint=eastwest;fontSize=16;" vertex="1" parent="GWg-XANY6kdctSkGbIym-502">
          <mxGeometry width="207" height="40" as="geometry" />
        </mxCell>
        <mxCell id="GWg-XANY6kdctSkGbIym-504" value="state_code" style="shape=partialRectangle;html=1;whiteSpace=wrap;connectable=0;strokeColor=inherit;overflow=hidden;fillColor=none;top=0;left=0;bottom=0;right=0;pointerEvents=1;fontSize=16;" vertex="1" parent="GWg-XANY6kdctSkGbIym-503">
          <mxGeometry width="103" height="40" as="geometry">
            <mxRectangle width="103" height="40" as="alternateBounds" />
          </mxGeometry>
        </mxCell>
        <mxCell id="GWg-XANY6kdctSkGbIym-505" value="home_state" style="shape=partialRectangle;html=1;whiteSpace=wrap;connectable=0;strokeColor=inherit;overflow=hidden;fillColor=none;top=0;left=0;bottom=0;right=0;pointerEvents=1;fontSize=16;" vertex="1" parent="GWg-XANY6kdctSkGbIym-503">
          <mxGeometry x="103" width="104" height="40" as="geometry">
            <mxRectangle width="104" height="40" as="alternateBounds" />
          </mxGeometry>
        </mxCell>
        <mxCell id="GWg-XANY6kdctSkGbIym-507" value="" style="shape=tableRow;horizontal=0;startSize=0;swimlaneHead=0;swimlaneBody=0;strokeColor=inherit;top=0;left=0;bottom=0;right=0;collapsible=0;dropTarget=0;fillColor=none;points=[[0,0.5],[1,0.5]];portConstraint=eastwest;fontSize=16;" vertex="1" parent="GWg-XANY6kdctSkGbIym-502">
          <mxGeometry y="40" width="207" height="40" as="geometry" />
        </mxCell>
        <mxCell id="GWg-XANY6kdctSkGbIym-508" value="26" style="shape=partialRectangle;html=1;whiteSpace=wrap;connectable=0;strokeColor=inherit;overflow=hidden;fillColor=none;top=0;left=0;bottom=0;right=0;pointerEvents=1;fontSize=16;" vertex="1" parent="GWg-XANY6kdctSkGbIym-507">
          <mxGeometry width="103" height="40" as="geometry">
            <mxRectangle width="103" height="40" as="alternateBounds" />
          </mxGeometry>
        </mxCell>
        <mxCell id="GWg-XANY6kdctSkGbIym-509" value="Michigan" style="shape=partialRectangle;html=1;whiteSpace=wrap;connectable=0;strokeColor=inherit;overflow=hidden;fillColor=none;top=0;left=0;bottom=0;right=0;pointerEvents=1;fontSize=16;" vertex="1" parent="GWg-XANY6kdctSkGbIym-507">
          <mxGeometry x="103" width="104" height="40" as="geometry">
            <mxRectangle width="104" height="40" as="alternateBounds" />
          </mxGeometry>
        </mxCell>
        <mxCell id="GWg-XANY6kdctSkGbIym-511" value="" style="shape=tableRow;horizontal=0;startSize=0;swimlaneHead=0;swimlaneBody=0;strokeColor=inherit;top=0;left=0;bottom=0;right=0;collapsible=0;dropTarget=0;fillColor=none;points=[[0,0.5],[1,0.5]];portConstraint=eastwest;fontSize=16;" vertex="1" parent="GWg-XANY6kdctSkGbIym-502">
          <mxGeometry y="80" width="207" height="40" as="geometry" />
        </mxCell>
        <mxCell id="GWg-XANY6kdctSkGbIym-512" value="56" style="shape=partialRectangle;html=1;whiteSpace=wrap;connectable=0;strokeColor=inherit;overflow=hidden;fillColor=none;top=0;left=0;bottom=0;right=0;pointerEvents=1;fontSize=16;" vertex="1" parent="GWg-XANY6kdctSkGbIym-511">
          <mxGeometry width="103" height="40" as="geometry">
            <mxRectangle width="103" height="40" as="alternateBounds" />
          </mxGeometry>
        </mxCell>
        <mxCell id="GWg-XANY6kdctSkGbIym-513" value="Wyoming" style="shape=partialRectangle;html=1;whiteSpace=wrap;connectable=0;strokeColor=inherit;overflow=hidden;fillColor=none;top=0;left=0;bottom=0;right=0;pointerEvents=1;fontSize=16;" vertex="1" parent="GWg-XANY6kdctSkGbIym-511">
          <mxGeometry x="103" width="104" height="40" as="geometry">
            <mxRectangle width="104" height="40" as="alternateBounds" />
          </mxGeometry>
        </mxCell>
        <mxCell id="GWg-XANY6kdctSkGbIym-515" value="&lt;span style=&quot;font-size: 22px;&quot;&gt;&lt;b&gt;Issues&lt;/b&gt; in this table: duplicate employee_id and name; an employee can have multiple jobs(violation of 1NF); home-state is redundant for each employee_id(violation of 2NF)&lt;/span&gt;" style="text;html=1;align=left;verticalAlign=middle;resizable=0;points=[];autosize=1;strokeColor=none;fillColor=none;" vertex="1" parent="1">
          <mxGeometry x="80" y="1480" width="1710" height="40" as="geometry" />
        </mxCell>
        <mxCell id="GWg-XANY6kdctSkGbIym-516" value="&lt;font style=&quot;font-size: 22px;&quot;&gt;Each columns contain&lt;b&gt; &lt;/b&gt;indivisible values, so repeating groups should be broken down into separate rows.&lt;/font&gt;" style="text;html=1;align=left;verticalAlign=middle;resizable=0;points=[];autosize=1;strokeColor=none;fillColor=none;" vertex="1" parent="1">
          <mxGeometry x="80" y="1680" width="1040" height="40" as="geometry" />
        </mxCell>
        <mxCell id="GWg-XANY6kdctSkGbIym-517" value="&lt;font style=&quot;font-size: 22px;&quot;&gt;Now each value is atomic, but partial dependencies still exist&lt;/font&gt;" style="text;html=1;align=left;verticalAlign=middle;resizable=0;points=[];autosize=1;strokeColor=none;fillColor=none;" vertex="1" parent="1">
          <mxGeometry x="80" y="2040" width="610" height="40" as="geometry" />
        </mxCell>
        <mxCell id="GWg-XANY6kdctSkGbIym-518" value="&lt;font style=&quot;font-size: 22px;&quot;&gt;All attributes must depend on the entire primary key. The issue is that &lt;span style=&quot;&quot; data-start=&quot;104&quot; data-end=&quot;112&quot;&gt;name&lt;/span&gt; and &lt;span style=&quot;&quot; data-start=&quot;117&quot; data-end=&quot;131&quot;&gt;home_state&lt;/span&gt; depend only on &lt;span style=&quot;&quot; data-start=&quot;147&quot; data-end=&quot;162&quot;&gt;employee_id&lt;/span&gt;, while &lt;span style=&quot;&quot; data-start=&quot;170&quot; data-end=&quot;177&quot;&gt;job&lt;/span&gt; depends only on &lt;span style=&quot;&quot; data-start=&quot;194&quot; data-end=&quot;206&quot;&gt;job_code&lt;/span&gt;. The solution is to split the table into two: &lt;span style=&quot;&quot; data-start=&quot;253&quot; data-end=&quot;266&quot;&gt;Employees&lt;/span&gt;&amp;nbsp;and &lt;span style=&quot;&quot; data-start=&quot;298&quot; data-end=&quot;306&quot;&gt;Jobs&lt;/span&gt;&amp;nbsp;&lt;/font&gt;" style="text;whiteSpace=wrap;html=1;" vertex="1" parent="1">
          <mxGeometry x="80" y="2160" width="1170" height="80" as="geometry" />
        </mxCell>
        <mxCell id="GWg-XANY6kdctSkGbIym-519" value="&lt;font style=&quot;font-size: 22px;&quot;&gt;Employees Table&lt;/font&gt;" style="text;html=1;align=center;verticalAlign=middle;resizable=0;points=[];autosize=1;strokeColor=none;fillColor=none;" vertex="1" parent="1">
          <mxGeometry x="130" y="2253" width="190" height="40" as="geometry" />
        </mxCell>
        <mxCell id="GWg-XANY6kdctSkGbIym-520" value="&lt;font style=&quot;font-size: 22px;&quot;&gt;Jobs Table&lt;/font&gt;" style="text;html=1;align=center;verticalAlign=middle;resizable=0;points=[];autosize=1;strokeColor=none;fillColor=none;" vertex="1" parent="1">
          <mxGeometry x="570" y="2253" width="130" height="40" as="geometry" />
        </mxCell>
        <mxCell id="GWg-XANY6kdctSkGbIym-521" value="&lt;font style=&quot;font-size: 22px;&quot;&gt;Employee_Jobs&lt;/font&gt;" style="text;html=1;align=center;verticalAlign=middle;resizable=0;points=[];autosize=1;strokeColor=none;fillColor=none;" vertex="1" parent="1">
          <mxGeometry x="930" y="2253" width="180" height="40" as="geometry" />
        </mxCell>
        <mxCell id="GWg-XANY6kdctSkGbIym-522" value="&lt;font style=&quot;font-size: 22px;&quot;&gt;Now name&amp;nbsp;and state_code&amp;nbsp;depend only on employee_id, and job&amp;nbsp;depends only on job_code&lt;/font&gt;" style="text;whiteSpace=wrap;html=1;" vertex="1" parent="1">
          <mxGeometry x="80" y="2570" width="950" height="40" as="geometry" />
        </mxCell>
        <mxCell id="GWg-XANY6kdctSkGbIym-523" value="&lt;font style=&quot;font-size: 22px;&quot;&gt;&lt;span style=&quot;&quot; data-start=&quot;2893&quot; data-end=&quot;2902&quot;&gt;Rule -&amp;gt; r&lt;/span&gt;emove &lt;span style=&quot;&quot; data-start=&quot;2910&quot; data-end=&quot;2937&quot;&gt;transitive dependencies&lt;/span&gt;&lt;/font&gt;" style="text;whiteSpace=wrap;html=1;" vertex="1" parent="1">
          <mxGeometry x="80" y="2700" width="400" height="40" as="geometry" />
        </mxCell>
        <mxCell id="GWg-XANY6kdctSkGbIym-524" value="&lt;font style=&quot;font-size: 22px;&quot;&gt;Issue: state-code is related to home_state, but home_state depends on state_code, not employee_id. Therefore we must move state_code to a separate States table:&lt;/font&gt;" style="text;html=1;align=center;verticalAlign=middle;resizable=0;points=[];autosize=1;strokeColor=none;fillColor=none;" vertex="1" parent="1">
          <mxGeometry x="70" y="2770" width="1640" height="40" as="geometry" />
        </mxCell>
        <mxCell id="GWg-XANY6kdctSkGbIym-525" value="" style="shape=table;startSize=0;container=1;collapsible=0;childLayout=tableLayout;fontSize=16;" vertex="1" parent="1">
          <mxGeometry x="80" y="2870" width="207" height="120" as="geometry" />
        </mxCell>
        <mxCell id="GWg-XANY6kdctSkGbIym-526" value="" style="shape=tableRow;horizontal=0;startSize=0;swimlaneHead=0;swimlaneBody=0;strokeColor=inherit;top=0;left=0;bottom=0;right=0;collapsible=0;dropTarget=0;fillColor=none;points=[[0,0.5],[1,0.5]];portConstraint=eastwest;fontSize=16;" vertex="1" parent="GWg-XANY6kdctSkGbIym-525">
          <mxGeometry width="207" height="40" as="geometry" />
        </mxCell>
        <mxCell id="GWg-XANY6kdctSkGbIym-527" value="state_code" style="shape=partialRectangle;html=1;whiteSpace=wrap;connectable=0;strokeColor=inherit;overflow=hidden;fillColor=none;top=0;left=0;bottom=0;right=0;pointerEvents=1;fontSize=16;" vertex="1" parent="GWg-XANY6kdctSkGbIym-526">
          <mxGeometry width="103" height="40" as="geometry">
            <mxRectangle width="103" height="40" as="alternateBounds" />
          </mxGeometry>
        </mxCell>
        <mxCell id="GWg-XANY6kdctSkGbIym-528" value="home_state" style="shape=partialRectangle;html=1;whiteSpace=wrap;connectable=0;strokeColor=inherit;overflow=hidden;fillColor=none;top=0;left=0;bottom=0;right=0;pointerEvents=1;fontSize=16;" vertex="1" parent="GWg-XANY6kdctSkGbIym-526">
          <mxGeometry x="103" width="104" height="40" as="geometry">
            <mxRectangle width="104" height="40" as="alternateBounds" />
          </mxGeometry>
        </mxCell>
        <mxCell id="GWg-XANY6kdctSkGbIym-529" value="" style="shape=tableRow;horizontal=0;startSize=0;swimlaneHead=0;swimlaneBody=0;strokeColor=inherit;top=0;left=0;bottom=0;right=0;collapsible=0;dropTarget=0;fillColor=none;points=[[0,0.5],[1,0.5]];portConstraint=eastwest;fontSize=16;" vertex="1" parent="GWg-XANY6kdctSkGbIym-525">
          <mxGeometry y="40" width="207" height="40" as="geometry" />
        </mxCell>
        <mxCell id="GWg-XANY6kdctSkGbIym-530" value="26" style="shape=partialRectangle;html=1;whiteSpace=wrap;connectable=0;strokeColor=inherit;overflow=hidden;fillColor=none;top=0;left=0;bottom=0;right=0;pointerEvents=1;fontSize=16;" vertex="1" parent="GWg-XANY6kdctSkGbIym-529">
          <mxGeometry width="103" height="40" as="geometry">
            <mxRectangle width="103" height="40" as="alternateBounds" />
          </mxGeometry>
        </mxCell>
        <mxCell id="GWg-XANY6kdctSkGbIym-531" value="Michigan" style="shape=partialRectangle;html=1;whiteSpace=wrap;connectable=0;strokeColor=inherit;overflow=hidden;fillColor=none;top=0;left=0;bottom=0;right=0;pointerEvents=1;fontSize=16;" vertex="1" parent="GWg-XANY6kdctSkGbIym-529">
          <mxGeometry x="103" width="104" height="40" as="geometry">
            <mxRectangle width="104" height="40" as="alternateBounds" />
          </mxGeometry>
        </mxCell>
        <mxCell id="GWg-XANY6kdctSkGbIym-532" value="" style="shape=tableRow;horizontal=0;startSize=0;swimlaneHead=0;swimlaneBody=0;strokeColor=inherit;top=0;left=0;bottom=0;right=0;collapsible=0;dropTarget=0;fillColor=none;points=[[0,0.5],[1,0.5]];portConstraint=eastwest;fontSize=16;" vertex="1" parent="GWg-XANY6kdctSkGbIym-525">
          <mxGeometry y="80" width="207" height="40" as="geometry" />
        </mxCell>
        <mxCell id="GWg-XANY6kdctSkGbIym-533" value="56" style="shape=partialRectangle;html=1;whiteSpace=wrap;connectable=0;strokeColor=inherit;overflow=hidden;fillColor=none;top=0;left=0;bottom=0;right=0;pointerEvents=1;fontSize=16;" vertex="1" parent="GWg-XANY6kdctSkGbIym-532">
          <mxGeometry width="103" height="40" as="geometry">
            <mxRectangle width="103" height="40" as="alternateBounds" />
          </mxGeometry>
        </mxCell>
        <mxCell id="GWg-XANY6kdctSkGbIym-534" value="Wyoming" style="shape=partialRectangle;html=1;whiteSpace=wrap;connectable=0;strokeColor=inherit;overflow=hidden;fillColor=none;top=0;left=0;bottom=0;right=0;pointerEvents=1;fontSize=16;" vertex="1" parent="GWg-XANY6kdctSkGbIym-532">
          <mxGeometry x="103" width="104" height="40" as="geometry">
            <mxRectangle width="104" height="40" as="alternateBounds" />
          </mxGeometry>
        </mxCell>
        <mxCell id="GWg-XANY6kdctSkGbIym-535" value="" style="shape=table;startSize=0;container=1;collapsible=0;childLayout=tableLayout;fontSize=16;" vertex="1" parent="1">
          <mxGeometry x="360" y="2870" width="320" height="160" as="geometry" />
        </mxCell>
        <mxCell id="GWg-XANY6kdctSkGbIym-536" value="" style="shape=tableRow;horizontal=0;startSize=0;swimlaneHead=0;swimlaneBody=0;strokeColor=inherit;top=0;left=0;bottom=0;right=0;collapsible=0;dropTarget=0;fillColor=none;points=[[0,0.5],[1,0.5]];portConstraint=eastwest;fontSize=16;" vertex="1" parent="GWg-XANY6kdctSkGbIym-535">
          <mxGeometry width="320" height="40" as="geometry" />
        </mxCell>
        <mxCell id="GWg-XANY6kdctSkGbIym-537" value="eployee_id" style="shape=partialRectangle;html=1;whiteSpace=wrap;connectable=0;strokeColor=inherit;overflow=hidden;fillColor=none;top=0;left=0;bottom=0;right=0;pointerEvents=1;fontSize=16;" vertex="1" parent="GWg-XANY6kdctSkGbIym-536">
          <mxGeometry width="107" height="40" as="geometry">
            <mxRectangle width="107" height="40" as="alternateBounds" />
          </mxGeometry>
        </mxCell>
        <mxCell id="GWg-XANY6kdctSkGbIym-538" value="name" style="shape=partialRectangle;html=1;whiteSpace=wrap;connectable=0;strokeColor=inherit;overflow=hidden;fillColor=none;top=0;left=0;bottom=0;right=0;pointerEvents=1;fontSize=16;" vertex="1" parent="GWg-XANY6kdctSkGbIym-536">
          <mxGeometry x="107" width="106" height="40" as="geometry">
            <mxRectangle width="106" height="40" as="alternateBounds" />
          </mxGeometry>
        </mxCell>
        <mxCell id="GWg-XANY6kdctSkGbIym-539" value="state_code" style="shape=partialRectangle;html=1;whiteSpace=wrap;connectable=0;strokeColor=inherit;overflow=hidden;fillColor=none;top=0;left=0;bottom=0;right=0;pointerEvents=1;fontSize=16;" vertex="1" parent="GWg-XANY6kdctSkGbIym-536">
          <mxGeometry x="213" width="107" height="40" as="geometry">
            <mxRectangle width="107" height="40" as="alternateBounds" />
          </mxGeometry>
        </mxCell>
        <mxCell id="GWg-XANY6kdctSkGbIym-540" value="" style="shape=tableRow;horizontal=0;startSize=0;swimlaneHead=0;swimlaneBody=0;strokeColor=inherit;top=0;left=0;bottom=0;right=0;collapsible=0;dropTarget=0;fillColor=none;points=[[0,0.5],[1,0.5]];portConstraint=eastwest;fontSize=16;" vertex="1" parent="GWg-XANY6kdctSkGbIym-535">
          <mxGeometry y="40" width="320" height="40" as="geometry" />
        </mxCell>
        <mxCell id="GWg-XANY6kdctSkGbIym-541" value="E001" style="shape=partialRectangle;html=1;whiteSpace=wrap;connectable=0;strokeColor=inherit;overflow=hidden;fillColor=none;top=0;left=0;bottom=0;right=0;pointerEvents=1;fontSize=16;" vertex="1" parent="GWg-XANY6kdctSkGbIym-540">
          <mxGeometry width="107" height="40" as="geometry">
            <mxRectangle width="107" height="40" as="alternateBounds" />
          </mxGeometry>
        </mxCell>
        <mxCell id="GWg-XANY6kdctSkGbIym-542" value="Alice" style="shape=partialRectangle;html=1;whiteSpace=wrap;connectable=0;strokeColor=inherit;overflow=hidden;fillColor=none;top=0;left=0;bottom=0;right=0;pointerEvents=1;fontSize=16;" vertex="1" parent="GWg-XANY6kdctSkGbIym-540">
          <mxGeometry x="107" width="106" height="40" as="geometry">
            <mxRectangle width="106" height="40" as="alternateBounds" />
          </mxGeometry>
        </mxCell>
        <mxCell id="GWg-XANY6kdctSkGbIym-543" value="26" style="shape=partialRectangle;html=1;whiteSpace=wrap;connectable=0;strokeColor=inherit;overflow=hidden;fillColor=none;top=0;left=0;bottom=0;right=0;pointerEvents=1;fontSize=16;" vertex="1" parent="GWg-XANY6kdctSkGbIym-540">
          <mxGeometry x="213" width="107" height="40" as="geometry">
            <mxRectangle width="107" height="40" as="alternateBounds" />
          </mxGeometry>
        </mxCell>
        <mxCell id="GWg-XANY6kdctSkGbIym-544" value="" style="shape=tableRow;horizontal=0;startSize=0;swimlaneHead=0;swimlaneBody=0;strokeColor=inherit;top=0;left=0;bottom=0;right=0;collapsible=0;dropTarget=0;fillColor=none;points=[[0,0.5],[1,0.5]];portConstraint=eastwest;fontSize=16;" vertex="1" parent="GWg-XANY6kdctSkGbIym-535">
          <mxGeometry y="80" width="320" height="40" as="geometry" />
        </mxCell>
        <mxCell id="GWg-XANY6kdctSkGbIym-545" value="E002" style="shape=partialRectangle;html=1;whiteSpace=wrap;connectable=0;strokeColor=inherit;overflow=hidden;fillColor=none;top=0;left=0;bottom=0;right=0;pointerEvents=1;fontSize=16;" vertex="1" parent="GWg-XANY6kdctSkGbIym-544">
          <mxGeometry width="107" height="40" as="geometry">
            <mxRectangle width="107" height="40" as="alternateBounds" />
          </mxGeometry>
        </mxCell>
        <mxCell id="GWg-XANY6kdctSkGbIym-546" value="Bob" style="shape=partialRectangle;html=1;whiteSpace=wrap;connectable=0;strokeColor=inherit;overflow=hidden;fillColor=none;top=0;left=0;bottom=0;right=0;pointerEvents=1;fontSize=16;" vertex="1" parent="GWg-XANY6kdctSkGbIym-544">
          <mxGeometry x="107" width="106" height="40" as="geometry">
            <mxRectangle width="106" height="40" as="alternateBounds" />
          </mxGeometry>
        </mxCell>
        <mxCell id="GWg-XANY6kdctSkGbIym-547" value="56" style="shape=partialRectangle;html=1;whiteSpace=wrap;connectable=0;strokeColor=inherit;overflow=hidden;fillColor=none;top=0;left=0;bottom=0;right=0;pointerEvents=1;fontSize=16;" vertex="1" parent="GWg-XANY6kdctSkGbIym-544">
          <mxGeometry x="213" width="107" height="40" as="geometry">
            <mxRectangle width="107" height="40" as="alternateBounds" />
          </mxGeometry>
        </mxCell>
        <mxCell id="GWg-XANY6kdctSkGbIym-548" style="shape=tableRow;horizontal=0;startSize=0;swimlaneHead=0;swimlaneBody=0;strokeColor=inherit;top=0;left=0;bottom=0;right=0;collapsible=0;dropTarget=0;fillColor=none;points=[[0,0.5],[1,0.5]];portConstraint=eastwest;fontSize=16;" vertex="1" parent="GWg-XANY6kdctSkGbIym-535">
          <mxGeometry y="120" width="320" height="40" as="geometry" />
        </mxCell>
        <mxCell id="GWg-XANY6kdctSkGbIym-549" value="E003" style="shape=partialRectangle;html=1;whiteSpace=wrap;connectable=0;strokeColor=inherit;overflow=hidden;fillColor=none;top=0;left=0;bottom=0;right=0;pointerEvents=1;fontSize=16;" vertex="1" parent="GWg-XANY6kdctSkGbIym-548">
          <mxGeometry width="107" height="40" as="geometry">
            <mxRectangle width="107" height="40" as="alternateBounds" />
          </mxGeometry>
        </mxCell>
        <mxCell id="GWg-XANY6kdctSkGbIym-550" value="Alice" style="shape=partialRectangle;html=1;whiteSpace=wrap;connectable=0;strokeColor=inherit;overflow=hidden;fillColor=none;top=0;left=0;bottom=0;right=0;pointerEvents=1;fontSize=16;" vertex="1" parent="GWg-XANY6kdctSkGbIym-548">
          <mxGeometry x="107" width="106" height="40" as="geometry">
            <mxRectangle width="106" height="40" as="alternateBounds" />
          </mxGeometry>
        </mxCell>
        <mxCell id="GWg-XANY6kdctSkGbIym-551" value="56" style="shape=partialRectangle;html=1;whiteSpace=wrap;connectable=0;strokeColor=inherit;overflow=hidden;fillColor=none;top=0;left=0;bottom=0;right=0;pointerEvents=1;fontSize=16;" vertex="1" parent="GWg-XANY6kdctSkGbIym-548">
          <mxGeometry x="213" width="107" height="40" as="geometry">
            <mxRectangle width="107" height="40" as="alternateBounds" />
          </mxGeometry>
        </mxCell>
        <mxCell id="GWg-XANY6kdctSkGbIym-552" value="&lt;font style=&quot;font-size: 22px;&quot;&gt;States Table&lt;/font&gt;" style="text;html=1;align=center;verticalAlign=middle;resizable=0;points=[];autosize=1;strokeColor=none;fillColor=none;" vertex="1" parent="1">
          <mxGeometry x="100" y="2820" width="140" height="40" as="geometry" />
        </mxCell>
        <mxCell id="GWg-XANY6kdctSkGbIym-553" value="&lt;font style=&quot;font-size: 22px;&quot;&gt;Updated Employees Table&lt;/font&gt;" style="text;html=1;align=center;verticalAlign=middle;resizable=0;points=[];autosize=1;strokeColor=none;fillColor=none;" vertex="1" parent="1">
          <mxGeometry x="380" y="2820" width="280" height="40" as="geometry" />
        </mxCell>
        <mxCell id="GWg-XANY6kdctSkGbIym-554" value="&lt;font style=&quot;font-size: 22px;&quot;&gt;No more transitive dependencies !&lt;/font&gt;" style="text;whiteSpace=wrap;html=1;" vertex="1" parent="1">
          <mxGeometry x="80" y="3040" width="340" height="40" as="geometry" />
        </mxCell>
        <mxCell id="GWg-XANY6kdctSkGbIym-555" value="&lt;font style=&quot;font-size: 22px;&quot;&gt;Employees Table&lt;/font&gt;" style="text;html=1;align=center;verticalAlign=middle;resizable=0;points=[];autosize=1;strokeColor=none;fillColor=none;" vertex="1" parent="1">
          <mxGeometry x="145" y="3220" width="190" height="40" as="geometry" />
        </mxCell>
        <mxCell id="GWg-XANY6kdctSkGbIym-556" value="&lt;font style=&quot;font-size: 22px;&quot;&gt;Jobs Table&lt;/font&gt;" style="text;html=1;align=center;verticalAlign=middle;resizable=0;points=[];autosize=1;strokeColor=none;fillColor=none;" vertex="1" parent="1">
          <mxGeometry x="519" y="3220" width="130" height="40" as="geometry" />
        </mxCell>
        <mxCell id="GWg-XANY6kdctSkGbIym-557" value="&lt;font style=&quot;font-size: 22px;&quot;&gt;Employee_Jobs&lt;/font&gt;" style="text;html=1;align=center;verticalAlign=middle;resizable=0;points=[];autosize=1;strokeColor=none;fillColor=none;" vertex="1" parent="1">
          <mxGeometry x="850" y="3220" width="180" height="40" as="geometry" />
        </mxCell>
        <mxCell id="GWg-XANY6kdctSkGbIym-558" value="&lt;font style=&quot;font-size: 22px;&quot;&gt;States Table&lt;/font&gt;" style="text;html=1;align=center;verticalAlign=middle;resizable=0;points=[];autosize=1;strokeColor=none;fillColor=none;" vertex="1" parent="1">
          <mxGeometry x="1205" y="3220" width="140" height="40" as="geometry" />
        </mxCell>
        <mxCell id="GWg-XANY6kdctSkGbIym-559" value="&lt;font style=&quot;font-size: 22px;&quot;&gt;Finally, after 3NF Normalization:&lt;/font&gt;" style="text;html=1;align=center;verticalAlign=middle;resizable=0;points=[];autosize=1;strokeColor=none;fillColor=none;" vertex="1" parent="1">
          <mxGeometry x="80" y="3110" width="340" height="40" as="geometry" />
        </mxCell>
      </root>
    </mxGraphModel>
  </diagram>
</mxfile>
